<?xml version="1.0" encoding="UTF-8" standalone="no"?>
<!DOCTYPE svg PUBLIC "-//W3C//DTD SVG 1.1//EN" "http://www.w3.org/Graphics/SVG/1.1/DTD/svg11.dtd">
<svg version="1.1" xmlns="http://www.w3.org/2000/svg" xmlns:xlink="http://www.w3.org/1999/xlink" preserveAspectRatio="xMidYMid meet" viewBox="0 0 300 300" width="300" height="300"><defs><path d="M160.44 5L177.73 5L177.73 33.67L160.44 33.67L160.44 5Z" id="h6FY56Rlhi"></path><path d="M72.56 31.86L191.42 31.86L191.42 85.17L72.56 85.17L72.56 31.86Z" id="a6GFjzTYNp"></path><path d="M223.35 79.05L250 79.05L250 105.7L223.35 105.7L223.35 79.05Z" id="cLrVjgCF0"></path><path d="M72.2 79.05L227.8 79.05L227.8 269.22L72.2 269.22L72.2 79.05Z" id="c3BmITFiY"></path><path d="M161.54 32.19L73.08 32.19L73.08 267.81L226.92 267.81L226.92 95.62L250 95.62L250 295L50 295L50 5L161.54 5L161.54 32.19ZM176.92 79.86L176.92 5L250 79.86L176.92 79.86Z" id="d1MdV19MO"></path><path d="m191.04696,153.69444l-14.26819,0l0,-13.60556l14.26819,13.60556zm-38.46994,-13.60556l0,49.6l38.65055,0l0,-32.72222l-17.88039,0l0,-17.05l-20.77015,0l0,0.17222zm5.96013,-13.08889l-42.62397,0l0,9.64444l16.79673,0l-10.65599,7.75l0,8.26667l15.53246,-11.36667l0,-4.65l54.36362,0l0,-3.96111l-33.41286,-5.68333zm-20.77015,20.83889l-15.53246,11.36667l0,8.26667l15.53246,-11.36667l0,-8.26667zm-15.71307,34.44445l15.53246,-11.36667l0,-8.26667l-15.53246,11.36667l0,8.26667zm15.71307,3.44444l0,-8.26667l-15.53246,11.36667l0,4.47778l-6.14074,0l0,9.64444l9.57233,0l0,6.54444l-5.77952,0c-1.08366,-1.72222 -2.88976,-2.75556 -5.05708,-2.75556c-3.25098,0 -5.77952,2.41111 -5.77952,5.51111s2.52854,5.51111 5.77952,5.51111c2.16732,0 3.97342,-1.03333 5.05708,-2.75556l5.59891,0l0,4.99444l8.66928,0l0,-4.99444l5.59891,0c1.08366,1.72222 2.88976,2.75556 5.05708,2.75556c3.25098,0 5.77952,-2.41111 5.77952,-5.51111s-2.52854,-5.51111 -5.77952,-5.51111c-2.16732,0 -3.97342,1.03333 -5.05708,2.75556l-5.59891,0l0,-6.54444l24.38235,0l33.41286,-5.68333l0,-3.96111l-64.65839,0l10.47538,-7.57778z" fill="#D8A13F" id="g6iwSNOIBb"></path></defs><g><g><g><g><use xlink:href="#h6FY56Rlhi" opacity="1" fill="#ffffff" fill-opacity="1"></use></g><g><use xlink:href="#a6GFjzTYNp" opacity="1" fill="#ffffff" fill-opacity="1"></use></g><g><use xlink:href="#cLrVjgCF0" opacity="1" fill="#ffffff" fill-opacity="1"></use></g><g><use xlink:href="#c3BmITFiY" opacity="1" fill="#ffffff" fill-opacity="1"></use></g></g><g><use xlink:href="#d1MdV19MO" opacity="1" fill="#D8A13F" fill-opacity="1"></use></g><g><use xlink:href="#g6iwSNOIBb" opacity="1" fill="#D8A13F" fill-opacity="1"></use></g></g></g></svg>