<?xml version="1.0" encoding="UTF-8" standalone="no"?>
<!DOCTYPE svg PUBLIC "-//W3C//DTD SVG 1.1//EN" "http://www.w3.org/Graphics/SVG/1.1/DTD/svg11.dtd">
<svg version="1.1" xmlns="http://www.w3.org/2000/svg" xmlns:xlink="http://www.w3.org/1999/xlink" preserveAspectRatio="xMidYMid meet" viewBox="0 0 300 300" width="300" height="300"><defs><path d="M160.44 5L177.73 5L177.73 33.66L160.44 33.66L160.44 5Z" id="a7jiEIDO9A"></path><path d="M72.56 31.86L191.42 31.86L191.42 85.17L72.56 85.17L72.56 31.86Z" id="eACt50gC4"></path><path d="M223.34 79.04L250 79.04L250 105.7L223.34 105.7L223.34 79.04Z" id="asCZ5OX5o"></path><path d="M72.2 79.04L227.79 79.04L227.79 269.21L72.2 269.21L72.2 79.04Z" id="aDTAgphaz"></path><path d="M161.54 32.19L73.07 32.19L73.07 267.81L226.92 267.81L226.92 95.62L250 95.62L250 295L50 295L50 5L161.54 5L161.54 32.19ZM176.92 79.86L176.92 5L250 79.86L176.92 79.86Z" fill="#003399" id="b1mUkRKQXa"></path><path d="M111.66 149.51L92.5 149.51L92.5 193.49L111.66 193.49L156.6 219L156.6 124L111.66 149.51M176.19 199.29C176.79 200.16 181.56 207.05 182.15 207.91C197.28 200.7 207.5 187.16 207.5 171.5C207.5 156.02 197.28 142.29 182.15 135.08C181.56 135.94 176.79 142.84 176.19 143.7C187.69 149.16 195.57 159.53 195.57 171.5C195.57 183.46 187.69 193.84 176.19 199.29Z" fill="#003399" id="b5tgLQZLm"></path><path d="M165.54 184.52C166.12 185.34 170.72 191.96 171.29 192.78C180.24 188.56 186.2 180.65 186.2 171.5C186.2 162.35 180.24 154.43 171.29 150.21C170.72 151.04 166.12 157.65 165.54 158.48C171.08 161.12 174.7 165.87 174.7 171.5C174.7 177.13 171.08 181.88 165.54 184.52Z" fill="#003399" id="bIdnxqA3S"></path></defs><g><g><g><g><use xlink:href="#a7jiEIDO9A" opacity="1" fill="#ffffff" fill-opacity="1"></use></g><g><use xlink:href="#eACt50gC4" opacity="1" fill="#ffffff" fill-opacity="1"></use></g><g><use xlink:href="#asCZ5OX5o" opacity="1" fill="#ffffff" fill-opacity="1"></use></g><g><use xlink:href="#aDTAgphaz" opacity="1" fill="#ffffff" fill-opacity="1"></use></g></g><g><use xlink:href="#b1mUkRKQXa" opacity="1" fill="#0e3693" fill-opacity="1"></use></g><g><g><use xlink:href="#b5tgLQZLm" opacity="1" fill="#003399" fill-opacity="1"></use><g><use xlink:href="#b5tgLQZLm" opacity="1" fill-opacity="0" stroke="#000000" stroke-width="1" stroke-opacity="0"></use></g></g><g><use xlink:href="#bIdnxqA3S" opacity="1" fill="#003399" fill-opacity="1"></use><g><use xlink:href="#bIdnxqA3S" opacity="1" fill-opacity="0" stroke="#000000" stroke-width="1" stroke-opacity="0"></use></g></g></g></g></g></svg>