<?xml version="1.0" encoding="UTF-8" standalone="no"?>
<!DOCTYPE svg PUBLIC "-//W3C//DTD SVG 1.1//EN" "http://www.w3.org/Graphics/SVG/1.1/DTD/svg11.dtd">
<svg version="1.1" xmlns="http://www.w3.org/2000/svg" xmlns:xlink="http://www.w3.org/1999/xlink" preserveAspectRatio="xMidYMid meet" viewBox="0 0 300 300" width="300" height="300"><defs><path d="M160.44 5L177.73 5L177.73 33.67L160.44 33.67L160.44 5Z" id="ge89fQtMU"></path><path d="M72.2 31.86L191.06 31.86L191.06 85.17L72.2 85.17L72.2 31.86Z" id="brnSuCwZK"></path><path d="M223.35 79.05L250 79.05L250 105.7L223.35 105.7L223.35 79.05Z" id="e2dWAYKrjr"></path><path d="M72.2 79.05L227.8 79.05L227.8 269.22L72.2 269.22L72.2 79.05Z" id="fj2aP9C1V"></path><path d="M161.54 32.19L73.08 32.19L73.08 267.81L226.92 267.81L226.92 95.62L250 95.62L250 295L50 295L50 5L161.54 5L161.54 32.19ZM176.92 79.86L176.92 5L250 79.86L176.92 79.86Z" id="a3USN7FN6V"></path><path d="" id="h3AIMEMRH9"></path><path d="" id="f3rDUBTvN"></path><path d="" id="a3P9q4SiHp"></path><path d="M123.93 109.17C126.44 108.23 128 107.65 128.62 107.41C133.16 105.71 137.85 104.46 142.63 103.69C144.29 103.42 142.42 103.72 144.16 103.44C148.65 102.71 153.2 102.48 157.74 102.76C159.82 102.9 158.97 102.84 160.98 102.97C165.74 103.26 170.4 104.43 174.75 106.4C176.6 107.24 176.36 107.14 178.41 108.07C182.09 109.74 185.35 112.23 187.93 115.35C189.23 116.92 188.73 116.32 189.92 117.74C192.88 121.32 194.81 125.62 195.53 130.2C195.81 132.04 195.63 130.87 195.93 132.78C196.6 137.12 196.21 141.56 194.8 145.71C194.22 147.4 194.59 146.31 194 148.04C192.63 152.07 190.52 155.82 187.79 159.09C186.82 160.26 188.45 158.3 187.58 159.34C184.49 163.05 180.89 166.29 176.89 168.99C174.91 170.32 169.97 173.64 162.06 178.96L162.06 197.66L145.16 197.66L145.16 171.76L151.85 167.45C156.58 164.37 159.53 162.45 160.71 161.68C164 159.54 166.98 156.97 169.59 154.04C170.53 152.98 168.8 154.92 169.59 154.04C172.68 150.55 174.94 146.41 176.19 141.91C176.53 140.69 175.81 143.28 176.19 141.91C177.3 137.92 177.21 133.69 175.94 129.75C175.61 128.72 176.61 131.83 176.3 130.84C175.01 126.85 172.29 123.47 168.66 121.37C167.55 120.73 169.78 122.02 168.66 121.37C165.04 119.27 160.94 118.17 156.77 118.17C155.38 118.17 157.94 118.17 156.64 118.17C152.12 118.17 147.62 118.71 143.23 119.8C142.1 120.07 143.11 119.83 141.42 120.24C138.88 120.87 136.39 121.68 133.96 122.68C132.63 123.23 129.28 124.6 123.93 126.8L123.93 109.17Z" id="aBHhGqZf"></path><path d="M145.33 212.12L162.62 212.12L162.62 228.62L145.33 228.62L145.33 212.12Z" id="b2rEiKYYHM"></path></defs><g><g><g><use xlink:href="#ge89fQtMU" opacity="1" fill="#ffffff" fill-opacity="1"></use></g><g><use xlink:href="#brnSuCwZK" opacity="1" fill="#ffffff" fill-opacity="1"></use></g><g><use xlink:href="#e2dWAYKrjr" opacity="1" fill="#ffffff" fill-opacity="1"></use></g><g><use xlink:href="#fj2aP9C1V" opacity="1" fill="#ffffff" fill-opacity="1"></use></g><g><use xlink:href="#a3USN7FN6V" opacity="1" fill="#2861a8" fill-opacity="1"></use></g><g><g><use xlink:href="#h3AIMEMRH9" opacity="1" fill-opacity="0" stroke="#000000" stroke-width="1" stroke-opacity="1"></use></g></g><g><g><use xlink:href="#f3rDUBTvN" opacity="1" fill-opacity="0" stroke="#000000" stroke-width="1" stroke-opacity="1"></use></g></g><g><g><use xlink:href="#a3P9q4SiHp" opacity="1" fill-opacity="0" stroke="#2861a8" stroke-width="1" stroke-opacity="1"></use></g></g><g><use xlink:href="#aBHhGqZf" opacity="1" fill="#2861a8" fill-opacity="1"></use><g><use xlink:href="#aBHhGqZf" opacity="1" fill-opacity="0" stroke="#2861a8" stroke-width="1" stroke-opacity="1"></use></g></g><g><use xlink:href="#b2rEiKYYHM" opacity="1" fill="#000000" fill-opacity="1"></use></g></g></g></svg>