<?xml version="1.0" encoding="UTF-8" standalone="no"?>
<!DOCTYPE svg PUBLIC "-//W3C//DTD SVG 1.1//EN" "http://www.w3.org/Graphics/SVG/1.1/DTD/svg11.dtd">
<svg version="1.1" xmlns="http://www.w3.org/2000/svg" xmlns:xlink="http://www.w3.org/1999/xlink" preserveAspectRatio="xMidYMid meet" viewBox="0 0 300 300" width="300" height="300"><defs><path d="M160.44 5L177.73 5L177.73 33.67L160.44 33.67L160.44 5Z" id="a2CdCgyhfN"></path><path d="M72.56 31.86L191.42 31.86L191.42 85.17L72.56 85.17L72.56 31.86Z" id="c6k8gEi22"></path><path d="M223.34 79.05L250 79.05L250 105.7L223.34 105.7L223.34 79.05Z" id="b47y7onMVy"></path><path d="M72.2 79.05L227.79 79.05L227.79 269.22L72.2 269.22L72.2 79.05Z" id="d1lQylhrUH"></path><path d="M161.54 32.19L73.07 32.19L73.07 267.81L226.92 267.81L226.92 95.62L250 95.62L250 295L50 295L50 5L161.54 5L161.54 32.19ZM176.92 79.86L176.92 5L250 79.86L176.92 79.86Z" id="a1FuhhhyQ0"></path><path d="M101.12 124L135.77 124L150.37 147.28L168.36 124L203 124L167.42 166.06L207.5 214L173.22 214L151.69 184.65L126.4 214L92.5 214L134.64 166.06L101.12 124Z" fill="#30723f" id="b3NjZkakD1"></path></defs><g><g><g><g><use xlink:href="#a2CdCgyhfN" opacity="1" fill="#ffffff" fill-opacity="1"></use></g><g><use xlink:href="#c6k8gEi22" opacity="1" fill="#ffffff" fill-opacity="1"></use></g><g><use xlink:href="#b47y7onMVy" opacity="1" fill="#ffffff" fill-opacity="1"></use></g><g><use xlink:href="#d1lQylhrUH" opacity="1" fill="#ffffff" fill-opacity="1"></use></g></g><g><use xlink:href="#a1FuhhhyQ0" opacity="1" fill="#30723f" fill-opacity="1"></use></g><g><use xlink:href="#b3NjZkakD1" opacity="1" fill="#30723f" fill-opacity="1"></use><g><use xlink:href="#b3NjZkakD1" opacity="1" fill-opacity="0" stroke="#000000" stroke-width="1" stroke-opacity="0"></use></g></g></g></g></svg>