<?xml version="1.0" encoding="UTF-8" standalone="no"?>
<!DOCTYPE svg PUBLIC "-//W3C//DTD SVG 1.1//EN" "http://www.w3.org/Graphics/SVG/1.1/DTD/svg11.dtd">
<svg version="1.1" xmlns="http://www.w3.org/2000/svg" xmlns:xlink="http://www.w3.org/1999/xlink" preserveAspectRatio="xMidYMid meet" viewBox="0 0 300 300" width="300" height="300"><defs><path d="M160.44 5L177.73 5L177.73 33.66L160.44 33.66L160.44 5Z" id="eZuDRHBEA"></path><path d="M72.56 31.86L191.42 31.86L191.42 85.17L72.56 85.17L72.56 31.86Z" id="c1MSRpMlB4"></path><path d="M223.34 79.04L250 79.04L250 105.7L223.34 105.7L223.34 79.04Z" id="c276pXrM0U"></path><path d="M72.2 79.04L227.79 79.04L227.79 269.21L72.2 269.21L72.2 79.04Z" id="d1sqbkxULH"></path><path d="M161.54 32.19L73.07 32.19L73.07 267.81L226.92 267.81L226.92 95.62L250 95.62L250 295L50 295L50 5L161.54 5L161.54 32.19ZM176.92 79.86L176.92 5L250 79.86L176.92 79.86Z" id="a7SRnQfMRM"></path><path d="M165.85 114.7L209.43 114.7L209.43 122.27L165.85 122.27L165.85 114.7Z" id="e1jlrWtu2s"></path><path d="M165.85 139L210 139L210 144.75L165.85 144.75L165.85 139Z" id="c1jvfRo5kB"></path><path d="M165.25 160.5L210 160.5L210 166.25L165.25 166.25L165.25 160.5Z" id="a3A7vWs1Fy"></path><path d="M165.25 181.25L210 181.25L210 188.25L165.25 188.25L165.25 181.25Z" id="a2np29TM0Z"></path><path d="M165.25 202L210 202L210 210.25L165.25 210.25L165.25 202Z" id="c20agdVIFN"></path><path d="M176.25 122.27L182 122.27L182 202L176.25 202L176.25 122.27Z" id="d7Fo5e7nk"></path><path d="M203 122.27L210 122.27L210 203.25L203 203.25L203 122.27Z" id="c5IxUMPeg"></path><path d="M88.26 208.63L156.51 225.63L156.51 95.37L87.01 109.37L88.26 208.63Z" fill="#2861a8" id="c4dYdsAaj3"></path><path d="M113.5 136.8L122 151.05L131 135.68L137.75 136.8L126.5 156.56L138.5 177.55L129.25 177.55L121 162.8L112.5 178.55L103.75 177.55L116.25 157.18L105 136.8L113.5 136.8Z" fill="#ffffff" id="b5p2p2o1sl"></path></defs><g><g><g><g><g><use xlink:href="#eZuDRHBEA" opacity="1" fill="#ffffff" fill-opacity="1"></use></g><g><use xlink:href="#c1MSRpMlB4" opacity="1" fill="#ffffff" fill-opacity="1"></use></g><g><use xlink:href="#c276pXrM0U" opacity="1" fill="#ffffff" fill-opacity="1"></use></g><g><use xlink:href="#d1sqbkxULH" opacity="1" fill="#ffffff" fill-opacity="1"></use></g></g><g><use xlink:href="#a7SRnQfMRM" opacity="1" fill="#2861a8" fill-opacity="1"></use></g></g><g><use xlink:href="#e1jlrWtu2s" opacity="1" fill="#2861a8" fill-opacity="1"></use></g><g><use xlink:href="#c1jvfRo5kB" opacity="1" fill="#2861a8" fill-opacity="1"></use></g><g><use xlink:href="#a3A7vWs1Fy" opacity="1" fill="#2861a8" fill-opacity="1"></use></g><g><use xlink:href="#a2np29TM0Z" opacity="1" fill="#2861a8" fill-opacity="1"></use></g><g><use xlink:href="#c20agdVIFN" opacity="1" fill="#2861a8" fill-opacity="1"></use></g><g><use xlink:href="#d7Fo5e7nk" opacity="1" fill="#2861a8" fill-opacity="1"></use></g><g><use xlink:href="#c5IxUMPeg" opacity="1" fill="#2861a8" fill-opacity="1"></use></g><g><g><use xlink:href="#c4dYdsAaj3" opacity="1" fill="#2861a8" fill-opacity="1"></use><g><use xlink:href="#c4dYdsAaj3" opacity="1" fill-opacity="0" stroke="#2861a8" stroke-width="1" stroke-opacity="1"></use></g></g><g><use xlink:href="#b5p2p2o1sl" opacity="1" fill="#fbfbfb" fill-opacity="1"></use><g><use xlink:href="#b5p2p2o1sl" opacity="1" fill-opacity="0" stroke="#fcfcfc" stroke-width="1" stroke-opacity="1"></use></g></g></g></g></g></svg>