<?xml version="1.0" encoding="UTF-8" standalone="no"?>
<!DOCTYPE svg PUBLIC "-//W3C//DTD SVG 1.1//EN" "http://www.w3.org/Graphics/SVG/1.1/DTD/svg11.dtd">
<svg version="1.1" xmlns="http://www.w3.org/2000/svg" xmlns:xlink="http://www.w3.org/1999/xlink" preserveAspectRatio="xMidYMid meet" viewBox="0 0 200 300" width="200" height="300"><defs><path d="M0 0L200.85 0L200.85 300L0 300L0 0Z" id="h2V4aimkp"></path><path d="M110.96 32.19L26.92 32.19L26.92 267.81L173.08 267.81L173.08 95.62L195 95.62L195 295L5 295L5 5L110.96 5L110.96 32.19ZM125.58 79.86L125.58 5L195 79.86L125.58 79.86Z" id="a5XqBGCbh"></path><path d="" id="b15IKhmkt3"></path><path d="" id="b1lO1XkuXe"></path><path d="" id="i8jmfi3kQK"></path><path d="M137.41 200.72L106.47 154.68L87.41 169.78L68.71 141.73L44.24 200.72L137.41 200.72Z" id="bLQMa0Sc"></path><path d="M142.45 129.68C142.45 139.11 134.87 146.76 125.54 146.76C116.21 146.76 108.63 139.11 108.63 129.68C108.63 120.25 116.21 112.59 125.54 112.59C134.87 112.59 142.45 120.25 142.45 129.68Z" id="cbGzuhHkz"></path></defs><g><g><g><use xlink:href="#h2V4aimkp" opacity="1" fill="#ffffff" fill-opacity="1"></use></g><g><use xlink:href="#a5XqBGCbh" opacity="1" fill="#2861a8" fill-opacity="1"></use></g><g><g><use xlink:href="#b15IKhmkt3" opacity="1" fill-opacity="0" stroke="#000000" stroke-width="1" stroke-opacity="1"></use></g></g><g><g><use xlink:href="#b1lO1XkuXe" opacity="1" fill-opacity="0" stroke="#000000" stroke-width="1" stroke-opacity="1"></use></g></g><g><g><use xlink:href="#i8jmfi3kQK" opacity="1" fill-opacity="0" stroke="#2861a8" stroke-width="1" stroke-opacity="1"></use></g></g><g><use xlink:href="#bLQMa0Sc" opacity="1" fill="#2861a8" fill-opacity="1"></use><g><use xlink:href="#bLQMa0Sc" opacity="1" fill-opacity="0" stroke="#2861a8" stroke-width="1" stroke-opacity="1"></use></g></g><g><use xlink:href="#cbGzuhHkz" opacity="1" fill="#2861a8" fill-opacity="1"></use></g></g></g></svg>