<?xml version="1.0" encoding="UTF-8" standalone="no"?>
<!DOCTYPE svg PUBLIC "-//W3C//DTD SVG 1.1//EN" "http://www.w3.org/Graphics/SVG/1.1/DTD/svg11.dtd">
<svg version="1.1" xmlns="http://www.w3.org/2000/svg" xmlns:xlink="http://www.w3.org/1999/xlink" preserveAspectRatio="xMidYMid meet" viewBox="0 0 300 300" width="300" height="300"><defs><path d="M160.44 5L177.73 5L177.73 33.67L160.44 33.67L160.44 5Z" id="d2RSGbNku9"></path><path d="M72.2 31.86L191.06 31.86L191.06 85.17L72.2 85.17L72.2 31.86Z" id="b1zqfQ1ruU"></path><path d="M223.35 79.05L250 79.05L250 105.7L223.35 105.7L223.35 79.05Z" id="f18h0WacXo"></path><path d="M72.2 79.05L227.8 79.05L227.8 269.22L72.2 269.22L72.2 79.05Z" id="d64Ts9twg"></path><path d="M161.54 32.19L73.08 32.19L73.08 267.81L226.92 267.81L226.92 95.62L250 95.62L250 295L50 295L50 5L161.54 5L161.54 32.19ZM176.92 79.86L176.92 5L250 79.86L176.92 79.86Z" id="a84vi0RgC7"></path><path d="" id="b15IKhmkt3"></path><path d="" id="b1lO1XkuXe"></path><path d="" id="i8jmfi3kQK"></path><path d="M85.13 221.31L126.91 221.31L168.69 221.31L147.8 188.54L126.91 155.76L106.02 188.54L85.13 221.31Z" fill="#2861a8" id="a4WtIuvSHw"></path><path d="M121.51 221.31L163.29 221.31L205.07 221.31L184.18 197.18L163.29 173.05L142.4 197.18L121.51 221.31Z" fill="#2861a8" id="c46PUVULHN"></path><path d="M180.76 161.17C170.12 161.17 161.49 152.61 161.49 142.08C161.49 131.54 170.12 122.99 180.76 122.99C191.39 122.99 200.03 131.54 200.03 142.08C200.03 152.61 191.39 161.17 180.76 161.17Z" fill="#2861a8" id="b1c8sphzhX"></path></defs><g><g><g><use xlink:href="#d2RSGbNku9" opacity="1" fill="#ffffff" fill-opacity="1"></use></g><g><use xlink:href="#b1zqfQ1ruU" opacity="1" fill="#ffffff" fill-opacity="1"></use></g><g><use xlink:href="#f18h0WacXo" opacity="1" fill="#ffffff" fill-opacity="1"></use></g><g><use xlink:href="#d64Ts9twg" opacity="1" fill="#ffffff" fill-opacity="1"></use></g><g><use xlink:href="#a84vi0RgC7" opacity="1" fill="#2861a8" fill-opacity="1"></use></g><g><g><use xlink:href="#b15IKhmkt3" opacity="1" fill-opacity="0" stroke="#000000" stroke-width="1" stroke-opacity="1"></use></g></g><g><g><use xlink:href="#b1lO1XkuXe" opacity="1" fill-opacity="0" stroke="#000000" stroke-width="1" stroke-opacity="1"></use></g></g><g><g><use xlink:href="#i8jmfi3kQK" opacity="1" fill-opacity="0" stroke="#2861a8" stroke-width="1" stroke-opacity="1"></use></g></g><g><use xlink:href="#a4WtIuvSHw" opacity="1" fill="#2861a8" fill-opacity="1"></use><g><use xlink:href="#a4WtIuvSHw" opacity="1" fill-opacity="0" stroke="#000000" stroke-width="1" stroke-opacity="0"></use></g></g><g><use xlink:href="#c46PUVULHN" opacity="1" fill="#2861a8" fill-opacity="1"></use><g><use xlink:href="#c46PUVULHN" opacity="1" fill-opacity="0" stroke="#000000" stroke-width="1" stroke-opacity="0"></use></g></g><g><use xlink:href="#b1c8sphzhX" opacity="1" fill="#2861a8" fill-opacity="1"></use><g><use xlink:href="#b1c8sphzhX" opacity="1" fill-opacity="0" stroke="#000000" stroke-width="1" stroke-opacity="0"></use></g></g></g></g></svg>