<?xml version="1.0" encoding="UTF-8" standalone="no"?>
<!DOCTYPE svg PUBLIC "-//W3C//DTD SVG 1.1//EN" "http://www.w3.org/Graphics/SVG/1.1/DTD/svg11.dtd">
<svg version="1.1" xmlns="http://www.w3.org/2000/svg" xmlns:xlink="http://www.w3.org/1999/xlink" preserveAspectRatio="xMidYMid meet" viewBox="0 0 300 300" width="300" height="300"><defs><path d="M160.44 5L177.73 5L177.73 33.67L160.44 33.67L160.44 5Z" id="aTSuojk3P"></path><path d="M72.56 31.86L191.42 31.86L191.42 85.17L72.56 85.17L72.56 31.86Z" id="b2BzPnHAr"></path><path d="M223.34 79.05L250 79.05L250 105.7L223.34 105.7L223.34 79.05Z" id="b8m9cSdGmr"></path><path d="M72.2 79.05L227.79 79.05L227.79 269.22L72.2 269.22L72.2 79.05Z" id="a2hQc42H8R"></path><path d="M161.54 32.19L73.07 32.19L73.07 267.81L226.92 267.81L226.92 95.62L250 95.62L250 295L50 295L50 5L161.54 5L161.54 32.19ZM176.92 79.86L176.92 5L250 79.86L176.92 79.86Z" id="ayfqCDQrx"></path><path d="M113.57 124C104.78 124 97.65 130.96 97.65 139.54C97.65 148.13 104.78 155.08 113.57 155.08C122.36 155.08 129.49 148.13 129.49 139.54C129.49 130.96 122.36 124 113.57 124Z" fill="#5b2d8d" id="aJzTbquNX"></path><path d="M206.73 164.07L187.44 145.42L149.23 182.92L130.13 164.07L91.73 201.57L91.73 214L206.73 214L206.73 164.07Z" fill="#5b2d8d" id="b4PAJ76G5V"></path></defs><g><g><g><g><use xlink:href="#aTSuojk3P" opacity="1" fill="#ffffff" fill-opacity="1"></use></g><g><use xlink:href="#b2BzPnHAr" opacity="1" fill="#ffffff" fill-opacity="1"></use></g><g><use xlink:href="#b8m9cSdGmr" opacity="1" fill="#ffffff" fill-opacity="1"></use></g><g><use xlink:href="#a2hQc42H8R" opacity="1" fill="#ffffff" fill-opacity="1"></use></g></g><g><use xlink:href="#ayfqCDQrx" opacity="1" fill="#5b2d8d" fill-opacity="1"></use></g><g><g><use xlink:href="#aJzTbquNX" opacity="1" fill="#5b2d8d" fill-opacity="1"></use><g><use xlink:href="#aJzTbquNX" opacity="1" fill-opacity="0" stroke="#000000" stroke-width="1" stroke-opacity="0"></use></g></g><g><use xlink:href="#b4PAJ76G5V" opacity="1" fill="#5b2d8d" fill-opacity="1"></use><g><use xlink:href="#b4PAJ76G5V" opacity="1" fill-opacity="0" stroke="#000000" stroke-width="1" stroke-opacity="0"></use></g></g></g></g></g></svg>