<?xml version="1.0" encoding="UTF-8" standalone="no"?>
<!DOCTYPE svg PUBLIC "-//W3C//DTD SVG 1.1//EN" "http://www.w3.org/Graphics/SVG/1.1/DTD/svg11.dtd">
<svg version="1.1" xmlns="http://www.w3.org/2000/svg" xmlns:xlink="http://www.w3.org/1999/xlink" preserveAspectRatio="xMidYMid meet" viewBox="0 0 200 300" width="200" height="300"><defs><path d="M0 0L200.85 0L200.85 300L0 300L0 0Z" id="h2V4aimkp"></path><path d="M110.96 32.19L26.92 32.19L26.92 267.81L173.08 267.81L173.08 95.62L195 95.62L195 295L5 295L5 5L110.96 5L110.96 32.19ZM125.58 79.86L125.58 5L195 79.86L125.58 79.86Z" id="a5XqBGCbh"></path><path d="M83.81 197.84C87.18 203.86 81.63 213.38 71.42 219.08C61.22 224.78 50.2 224.52 46.83 218.49C43.47 212.47 49.02 202.95 59.22 197.25C69.43 191.54 80.44 191.81 83.81 197.84Z" id="a1Z8hjEqO1"></path><path d="" id="b15IKhmkt3"></path><path d="" id="b1lO1XkuXe"></path><path d="M143.44 188C146.81 194.03 141.26 203.55 131.05 209.25C120.85 214.95 109.83 214.69 106.47 208.66C103.1 202.64 108.65 193.12 118.85 187.42C129.06 181.71 140.07 181.98 143.44 188Z" id="a11FWsNPMo"></path><path d="" id="i8jmfi3kQK"></path><path d="M82.23 196.28C79.21 186.8 77.31 180.88 76.56 178.51C73.64 169.37 72.12 159.84 72.05 150.24C72.03 147.71 71.98 141.36 71.9 131.21C72.89 128.62 79.6 125.16 92.02 120.83C110.66 114.34 118.75 111.61 124.84 111.46C130.93 111.31 130.39 115.8 129.18 136.24C128.52 147.48 129.58 163.9 132.37 185.48C134.73 186.97 137.22 187.02 139.86 185.64C141.66 184.7 135.17 178.46 133.07 152.78C132.11 140.9 132.77 124.01 135.08 102.12C135.12 101.68 134.74 101.31 134.3 101.39C94.24 108.23 72.38 117.07 68.71 127.9C65 138.87 67.86 162.34 77.3 198.33L82.23 196.28Z" id="caTnaOeehW"></path></defs><g><g><g><use xlink:href="#h2V4aimkp" opacity="1" fill="#ffffff" fill-opacity="1"></use></g><g><use xlink:href="#a5XqBGCbh" opacity="1" fill="#2861a8" fill-opacity="1"></use></g><g><use xlink:href="#a1Z8hjEqO1" opacity="1" fill="#2861a8" fill-opacity="1"></use></g><g><g><use xlink:href="#b15IKhmkt3" opacity="1" fill-opacity="0" stroke="#000000" stroke-width="1" stroke-opacity="1"></use></g></g><g><g><use xlink:href="#b1lO1XkuXe" opacity="1" fill-opacity="0" stroke="#000000" stroke-width="1" stroke-opacity="1"></use></g></g><g><use xlink:href="#a11FWsNPMo" opacity="1" fill="#2861a8" fill-opacity="1"></use></g><g><g><use xlink:href="#i8jmfi3kQK" opacity="1" fill-opacity="0" stroke="#2861a8" stroke-width="1" stroke-opacity="1"></use></g></g><g><use xlink:href="#caTnaOeehW" opacity="1" fill="#2861a8" fill-opacity="1"></use><g><use xlink:href="#caTnaOeehW" opacity="1" fill-opacity="0" stroke="#2861a8" stroke-width="1" stroke-opacity="1"></use></g></g></g></g></svg>