<?xml version="1.0" encoding="UTF-8" standalone="no"?>
<!DOCTYPE svg PUBLIC "-//W3C//DTD SVG 1.1//EN" "http://www.w3.org/Graphics/SVG/1.1/DTD/svg11.dtd">
<svg version="1.1" xmlns="http://www.w3.org/2000/svg" xmlns:xlink="http://www.w3.org/1999/xlink" preserveAspectRatio="xMidYMid meet" viewBox="0 0 300 300" width="300" height="300"><defs><path d="M160.44 5L177.73 5L177.73 33.67L160.44 33.67L160.44 5Z" id="d2RSGbNku9"></path><path d="M72.2 31.86L191.06 31.86L191.06 85.17L72.2 85.17L72.2 31.86Z" id="b1zqfQ1ruU"></path><path d="M223.35 79.05L250 79.05L250 105.7L223.35 105.7L223.35 79.05Z" id="f18h0WacXo"></path><path d="M72.2 79.05L227.8 79.05L227.8 269.22L72.2 269.22L72.2 79.05Z" id="d64Ts9twg"></path><path d="M161.54 32.19L73.08 32.19L73.08 267.81L226.92 267.81L226.92 95.62L250 95.62L250 295L50 295L50 5L161.54 5L161.54 32.19ZM176.92 79.86L176.92 5L250 79.86L176.92 79.86Z" id="a84vi0RgC7"></path><path d="" id="b15IKhmkt3"></path><path d="" id="b1lO1XkuXe"></path><path d="" id="i8jmfi3kQK"></path><path d="M123.33 233.84C113.35 240.19 102.3 240.71 98.67 235C95.05 229.3 100.21 219.52 110.19 213.17C120.17 206.83 131.22 206.31 134.85 212.02C138.47 217.72 133.31 227.5 123.33 233.84Z" id="a2dUteRTh2"></path><path d="M189.37 209.68C179.38 216.02 168.34 216.54 164.71 210.84C161.09 205.14 166.25 195.35 176.23 189.01C186.21 182.67 197.26 182.15 200.89 187.85C204.51 193.56 199.35 203.34 189.37 209.68Z" id="d3Ms0H2h8D"></path><path d="M136.01 134.01C136.01 150.33 136.01 196.23 136.01 212.56C136.01 214.25 134.64 215.62 132.95 215.62C132.33 215.62 133.56 215.62 132.95 215.62C131.25 215.62 129.88 214.25 129.88 212.56C129.88 196.23 129.88 150.33 129.88 134.01C129.88 132.32 131.25 130.95 132.95 130.95C133.56 130.95 132.33 130.95 132.95 130.95C134.64 130.95 136.01 132.32 136.01 134.01Z" id="cCaFIQfNh"></path><path d="M202.04 112.4C202.04 128.72 202.04 174.63 202.04 190.95C202.04 192.64 200.67 194.01 198.98 194.01C198.37 194.01 199.6 194.01 198.98 194.01C197.29 194.01 195.92 192.64 195.92 190.95C195.92 174.63 195.92 128.72 195.92 112.4C195.92 110.71 197.29 109.34 198.98 109.34C199.6 109.34 198.37 109.34 198.98 109.34C200.67 109.34 202.04 110.71 202.04 112.4Z" id="ac5TcTyro"></path><path d="M201.16 109.55C201.59 110.73 201.81 111.35 202.23 112.53C202.81 114.14 201.97 115.92 200.36 116.5C186.72 121.4 148.74 135.05 135.1 139.96C133.49 140.54 131.71 139.7 131.13 138.08C130.7 136.9 130.48 136.29 130.06 135.11C129.48 133.5 130.32 131.72 131.93 131.14C145.57 126.24 183.55 112.58 197.19 107.68C198.8 107.1 200.58 107.94 201.16 109.55Z" id="aPcEAMf40"></path></defs><g><g><g><use xlink:href="#d2RSGbNku9" opacity="1" fill="#ffffff" fill-opacity="1"></use></g><g><use xlink:href="#b1zqfQ1ruU" opacity="1" fill="#ffffff" fill-opacity="1"></use></g><g><use xlink:href="#f18h0WacXo" opacity="1" fill="#ffffff" fill-opacity="1"></use></g><g><use xlink:href="#d64Ts9twg" opacity="1" fill="#ffffff" fill-opacity="1"></use></g><g><use xlink:href="#a84vi0RgC7" opacity="1" fill="#2861a8" fill-opacity="1"></use></g><g><g><use xlink:href="#b15IKhmkt3" opacity="1" fill-opacity="0" stroke="#000000" stroke-width="1" stroke-opacity="1"></use></g></g><g><g><use xlink:href="#b1lO1XkuXe" opacity="1" fill-opacity="0" stroke="#000000" stroke-width="1" stroke-opacity="1"></use></g></g><g><g><use xlink:href="#i8jmfi3kQK" opacity="1" fill-opacity="0" stroke="#2861a8" stroke-width="1" stroke-opacity="1"></use></g></g><g><use xlink:href="#a2dUteRTh2" opacity="1" fill="#2861a8" fill-opacity="1"></use><g><use xlink:href="#a2dUteRTh2" opacity="1" fill-opacity="0" stroke="#000000" stroke-width="1" stroke-opacity="0"></use></g></g><g><use xlink:href="#d3Ms0H2h8D" opacity="1" fill="#2861a8" fill-opacity="1"></use><g><use xlink:href="#d3Ms0H2h8D" opacity="1" fill-opacity="0" stroke="#000000" stroke-width="1" stroke-opacity="0"></use></g></g><g><use xlink:href="#cCaFIQfNh" opacity="1" fill="#2861a8" fill-opacity="1"></use><g><use xlink:href="#cCaFIQfNh" opacity="1" fill-opacity="0" stroke="#000000" stroke-width="1" stroke-opacity="0"></use></g></g><g><use xlink:href="#ac5TcTyro" opacity="1" fill="#2861a8" fill-opacity="1"></use><g><use xlink:href="#ac5TcTyro" opacity="1" fill-opacity="0" stroke="#000000" stroke-width="1" stroke-opacity="0"></use></g></g><g><use xlink:href="#aPcEAMf40" opacity="1" fill="#2861a8" fill-opacity="1"></use><g><use xlink:href="#aPcEAMf40" opacity="1" fill-opacity="0" stroke="#000000" stroke-width="1" stroke-opacity="0"></use></g></g></g></g></svg>