<?xml version="1.0" encoding="UTF-8" standalone="no"?>
<!DOCTYPE svg PUBLIC "-//W3C//DTD SVG 1.1//EN" "http://www.w3.org/Graphics/SVG/1.1/DTD/svg11.dtd">
<svg version="1.1" xmlns="http://www.w3.org/2000/svg" xmlns:xlink="http://www.w3.org/1999/xlink" preserveAspectRatio="xMidYMid meet" viewBox="0 0 300 300" width="300" height="300"><defs><path d="M160.44 5L177.73 5L177.73 33.67L160.44 33.67L160.44 5Z" id="bOzrMohrM"></path><path d="M72.56 31.86L191.42 31.86L191.42 85.17L72.56 85.17L72.56 31.86Z" id="a2Z16npmJ"></path><path d="M223.34 79.05L250 79.05L250 105.7L223.34 105.7L223.34 79.05Z" id="edmwWnRU8"></path><path d="M72.2 79.05L227.79 79.05L227.79 269.22L72.2 269.22L72.2 79.05Z" id="irj9dCZ4p"></path><path d="M161.54 32.19L73.07 32.19L73.07 267.81L226.92 267.81L226.92 95.62L250 95.62L250 295L50 295L50 5L161.54 5L161.54 32.19ZM176.92 79.86L176.92 5L250 79.86L176.92 79.86Z" id="a22NZo5bIt"></path><path d="M130.99 135.77C130.99 143.81 135.87 153.72 140.95 163.26C136.88 174.66 132.62 187 126.73 197.28C114.94 201.58 104.38 204.76 98.28 209.62C98.24 209.66 97.91 209.96 97.87 209.99C95.64 212.24 94.22 215.04 94.22 218.22C94.22 224.76 100.11 230 107.02 230C110.47 230 113.92 228.87 115.96 226.63C115.96 226.63 116.36 226.63 116.36 226.26C121.04 221.21 126.52 211.68 131.6 203.45C142.78 199.52 154.97 195.22 165.94 192.61C174.27 198.96 186.46 202.89 196.42 202.89C203.53 202.89 209.22 197.47 209.22 191.11C209.22 184.57 203.32 179.33 196.42 179.33C188.29 179.33 176.91 181.95 168.17 184.75C161.06 178.4 154.56 170.73 149.48 162.51C152.73 152.41 156.8 143.06 156.8 135.59C156.39 129.04 150.9 124 143.79 124C136.68 124 130.99 129.42 130.99 135.77ZM148.67 135.21C148.67 138.58 146.43 145.12 144.4 152.04C141.35 145.12 138.51 138.58 138.51 135.21C138.71 132.97 140.95 130.73 143.79 130.73C146.64 130.73 148.67 132.78 148.67 135.21ZM159.44 186.25C151.92 188.31 144.61 190.55 137.09 193.17C140.74 186.06 143.39 178.4 146.03 170.92C149.68 176.72 154.36 181.76 159.44 186.25ZM201.09 190.55C201.09 193.17 198.85 195.04 196.21 195.04C190.32 195.04 182.19 192.79 175.69 189.24C183.21 187.93 191.54 186.06 196.21 186.06C199.06 186.06 201.09 188.12 201.09 190.55ZM110.67 221.21C109.66 222.14 108.85 222.33 107.22 222.33C104.38 222.33 102.34 220.27 102.34 217.84C102.34 216.72 102.95 215.23 103.56 214.67C106.2 212.42 112.71 209.81 120.22 207C116.57 212.98 113.11 218.41 110.67 221.21Z" fill="#c11e07" id="bJfzMY1vr"></path></defs><g><g><g><g><use xlink:href="#bOzrMohrM" opacity="1" fill="#ffffff" fill-opacity="1"></use></g><g><use xlink:href="#a2Z16npmJ" opacity="1" fill="#ffffff" fill-opacity="1"></use></g><g><use xlink:href="#edmwWnRU8" opacity="1" fill="#ffffff" fill-opacity="1"></use></g><g><use xlink:href="#irj9dCZ4p" opacity="1" fill="#ffffff" fill-opacity="1"></use></g></g><g><use xlink:href="#a22NZo5bIt" opacity="1" fill="#c11e07" fill-opacity="1"></use></g><g><use xlink:href="#bJfzMY1vr" opacity="1" fill="#c11e07" fill-opacity="1"></use><g><use xlink:href="#bJfzMY1vr" opacity="1" fill-opacity="0" stroke="#c11e07" stroke-width="1.25" stroke-opacity="1"></use></g></g></g></g></svg>