<?xml version="1.0" encoding="UTF-8" standalone="no"?>
<!DOCTYPE svg PUBLIC "-//W3C//DTD SVG 1.1//EN" "http://www.w3.org/Graphics/SVG/1.1/DTD/svg11.dtd">
<svg version="1.1" xmlns="http://www.w3.org/2000/svg" xmlns:xlink="http://www.w3.org/1999/xlink" preserveAspectRatio="xMidYMid meet" viewBox="0 0 300 300" width="300" height="300"><defs><path d="M160.44 5L177.73 5L177.73 33.67L160.44 33.67L160.44 5Z" id="a3vhfyJied"></path><path d="M72.56 31.86L191.42 31.86L191.42 85.17L72.56 85.17L72.56 31.86Z" id="g1xQjoWH3q"></path><path d="M223.34 79.05L250 79.05L250 105.7L223.34 105.7L223.34 79.05Z" id="d1gAd9fJV2"></path><path d="M72.2 79.05L227.79 79.05L227.79 269.22L72.2 269.22L72.2 79.05Z" id="f37v9EsRRc"></path><path d="M161.54 32.19L73.07 32.19L73.07 267.81L226.92 267.81L226.92 95.62L250 95.62L250 295L50 295L50 5L161.54 5L161.54 32.19ZM176.92 79.86L176.92 5L250 79.86L176.92 79.86Z" id="aRxWOZr3S"></path><path d="M94.06 139.85L205.94 139.85L205.94 192.01L94.06 192.01L94.06 139.85Z" id="adAGXEBNe"></path><path d="M185 182.25L185 170L196.25 170L196.25 162.25L185 162.25L185 157.75L199 157.75L199 150L175 150L175 182.25L185 182.25Z" fill="#ffffff" id="bbR7P6K4D"></path><path d="M108 151.25L128.75 151.25C129.9 151.79 130.61 152.13 130.9 152.26C132.28 152.91 133.46 153.91 134.32 155.16C134.51 155.43 133 153.25 133 153.25C134.47 155.37 135.25 157.88 135.25 160.45C135.25 161.26 135.25 161.25 135.25 162.44C135.25 163.79 134.9 165.12 134.24 166.3C133.99 166.74 134.55 165.74 134.38 166.05C133.48 167.65 132.14 168.95 130.51 169.8C129.96 170.09 131.04 169.53 130.55 169.78C128.7 170.75 126.68 171.32 124.6 171.47C123.59 171.54 121.05 171.72 117 172L117 182.25L108 182.25L108 151.25Z" fill="#ffffff" id="ioSl5UDXD"></path><path d="M122.86 158.43L124.43 159.86L124.43 162L122.86 163.29L117.43 163.29L117.43 158.43L122.86 158.43Z" fill="#2861a8" id="dlqFnU0bH"></path><path d="M154.97 183.07C157.63 182.6 160.19 181.64 162.51 180.25C163.06 179.92 160.81 181.27 161.26 181C163.87 179.43 166.02 177.2 167.49 174.53C167.59 174.34 165.98 177.27 166.17 176.94C167.38 174.74 168.16 172.32 168.46 169.83C168.52 169.33 168.42 170.19 168.52 169.34C168.68 168.02 168.71 166.69 168.61 165.36C168.48 163.86 168.57 164.93 168.52 164.33C168.19 160.18 166.23 156.34 163.07 153.63C162.66 153.28 164.99 155.27 164.23 154.63C162.11 152.81 159.57 151.56 156.83 150.98C155.77 150.76 157.3 151.08 156.38 150.88C153.14 150.2 149.82 149.98 146.52 150.23C145.85 150.28 144.18 150.41 141.5 150.61L142.25 182.36C143.77 182.63 144.71 182.8 145.09 182.87C148.67 183.52 152.33 183.53 155.91 182.9C156.53 182.79 154.07 183.23 154.97 183.07Z" fill="#ffffff" id="a2N2UBRCoj"></path><path d="M156.24 172.21C157.24 171.13 157.79 169.72 157.79 168.26C157.79 168.16 157.79 167.92 157.79 167.54C157.79 166.69 157.79 166.16 157.79 165.94C157.79 164.31 157.13 162.75 155.96 161.61C155.86 161.51 156.71 162.35 156.44 162.08C155.78 161.44 154.99 160.94 154.13 160.62C153.68 160.46 152.57 160.05 150.79 159.39L150.79 174.11C151.34 174.11 151.69 174.11 151.83 174.11C153.53 174.11 155.15 173.4 156.31 172.14C156.6 171.82 155.89 172.59 156.24 172.21Z" fill="#2861a8" id="e5PaRYVtgb"></path></defs><g><g><g><g><g><use xlink:href="#a3vhfyJied" opacity="1" fill="#ffffff" fill-opacity="1"></use></g><g><use xlink:href="#g1xQjoWH3q" opacity="1" fill="#ffffff" fill-opacity="1"></use></g><g><use xlink:href="#d1gAd9fJV2" opacity="1" fill="#ffffff" fill-opacity="1"></use></g><g><use xlink:href="#f37v9EsRRc" opacity="1" fill="#ffffff" fill-opacity="1"></use></g></g><g><use xlink:href="#aRxWOZr3S" opacity="1" fill="#2861a8" fill-opacity="1"></use></g></g><g><use xlink:href="#adAGXEBNe" opacity="1" fill="#2861a8" fill-opacity="1"></use></g><g><use xlink:href="#bbR7P6K4D" opacity="1" fill="#ffffff" fill-opacity="1"></use><g><use xlink:href="#bbR7P6K4D" opacity="1" fill-opacity="0" stroke="#ffffff" stroke-width="1" stroke-opacity="1"></use></g></g><g><use xlink:href="#ioSl5UDXD" opacity="1" fill="#ffffff" fill-opacity="1"></use><g><use xlink:href="#ioSl5UDXD" opacity="1" fill-opacity="0" stroke="#ffffff" stroke-width="1" stroke-opacity="1"></use></g></g><g><use xlink:href="#dlqFnU0bH" opacity="1" fill="#2861a8" fill-opacity="1"></use><g><use xlink:href="#dlqFnU0bH" opacity="1" fill-opacity="0" stroke="#2861a8" stroke-width="1" stroke-opacity="1"></use></g></g><g><use xlink:href="#a2N2UBRCoj" opacity="1" fill="#ffffff" fill-opacity="1"></use><g><use xlink:href="#a2N2UBRCoj" opacity="1" fill-opacity="0" stroke="#ffffff" stroke-width="1" stroke-opacity="1"></use></g></g><g><use xlink:href="#e5PaRYVtgb" opacity="1" fill="#2861a8" fill-opacity="1"></use><g><use xlink:href="#e5PaRYVtgb" opacity="1" fill-opacity="0" stroke="#2861a8" stroke-width="1" stroke-opacity="1"></use></g></g></g></g></svg>