<?xml version="1.0" encoding="UTF-8" standalone="no"?>
<!DOCTYPE svg PUBLIC "-//W3C//DTD SVG 1.1//EN" "http://www.w3.org/Graphics/SVG/1.1/DTD/svg11.dtd">
<svg version="1.1" xmlns="http://www.w3.org/2000/svg" xmlns:xlink="http://www.w3.org/1999/xlink" preserveAspectRatio="xMidYMid meet" viewBox="0 0 300 300" width="300" height="300"><defs><path d="M160.44 5L177.73 5L177.73 33.67L160.44 33.67L160.44 5Z" id="h6FY56Rlhi"></path><path d="M72.56 31.86L191.42 31.86L191.42 85.17L72.56 85.17L72.56 31.86Z" id="a6GFjzTYNp"></path><path d="M223.35 79.05L250 79.05L250 105.7L223.35 105.7L223.35 79.05Z" id="cLrVjgCF0"></path><path d="M72.2 79.05L227.8 79.05L227.8 269.22L72.2 269.22L72.2 79.05Z" id="c3BmITFiY"></path><path d="M161.54 32.19L73.08 32.19L73.08 267.81L226.92 267.81L226.92 95.62L250 95.62L250 295L50 295L50 5L161.54 5L161.54 32.19ZM176.92 79.86L176.92 5L250 79.86L176.92 79.86Z" id="d1MdV19MO"></path><path d="m139.91803,222.66667l-29.91803,0l0,-106.66667l47.6295,0c12.92459,0 22.7377,3.11111 29.67868,9.33333c6.94098,6.22222 10.2918,14.88889 10.2918,26.22222c0,11.33333 -3.35082,20 -10.2918,26.22222c-6.94098,6.22222 -16.7541,9.33333 -29.67868,9.33333l-17.71147,0l0,35.55556zm0,-57.77778l9.81311,0c11.00983,0 16.51475,-4.44444 16.51475,-13.33333s-5.50492,-13.33333 -16.51475,-13.33333l-9.81311,0l0,26.66667z" stroke-linecap="round" fill="#c24f32" id="g6iwSNOIBb"></path></defs><g><g><g><g><use xlink:href="#h6FY56Rlhi" opacity="1" fill="#ffffff" fill-opacity="1"></use></g><g><use xlink:href="#a6GFjzTYNp" opacity="1" fill="#ffffff" fill-opacity="1"></use></g><g><use xlink:href="#cLrVjgCF0" opacity="1" fill="#ffffff" fill-opacity="1"></use></g><g><use xlink:href="#c3BmITFiY" opacity="1" fill="#ffffff" fill-opacity="1"></use></g></g><g><use xlink:href="#d1MdV19MO" opacity="1" fill="#c24f32" fill-opacity="1"></use></g><g><use xlink:href="#g6iwSNOIBb" opacity="1" fill="#c24f32" fill-opacity="1"></use></g></g></g></svg>