<?xml version="1.0" encoding="UTF-8" standalone="no"?>
<!DOCTYPE svg PUBLIC "-//W3C//DTD SVG 1.1//EN" "http://www.w3.org/Graphics/SVG/1.1/DTD/svg11.dtd">
<svg version="1.1" xmlns="http://www.w3.org/2000/svg" xmlns:xlink="http://www.w3.org/1999/xlink" preserveAspectRatio="xMidYMid meet" viewBox="0 0 300 300" width="300" height="300"><defs><path d="M160.44 5L177.73 5L177.73 33.67L160.44 33.67L160.44 5Z" id="h6FY56Rlhi"></path><path d="M72.56 31.86L191.42 31.86L191.42 85.17L72.56 85.17L72.56 31.86Z" id="a6GFjzTYNp"></path><path d="M223.35 79.05L250 79.05L250 105.7L223.35 105.7L223.35 79.05Z" id="cLrVjgCF0"></path><path d="M72.2 79.05L227.8 79.05L227.8 269.22L72.2 269.22L72.2 79.05Z" id="c3BmITFiY"></path><path d="M161.54 32.19L73.08 32.19L73.08 267.81L226.92 267.81L226.92 95.62L250 95.62L250 295L50 295L50 5L161.54 5L161.54 32.19ZM176.92 79.86L176.92 5L250 79.86L176.92 79.86Z" id="d1MdV19MO"></path><path d="M110.58 230L110.58 124C138.31 124 153.72 124 156.8 124C169.34 124 178.86 127.09 185.6 133.27C192.33 139.46 195.58 148.07 195.58 159.33C195.58 170.59 192.33 179.21 185.6 185.39C178.86 191.57 169.34 194.66 156.8 194.66C155.65 194.66 149.93 194.66 139.61 194.66L139.61 230L110.58 230ZM149.14 172.58C159.82 172.58 165.16 168.16 165.16 159.33C165.16 150.5 159.82 146.08 149.14 146.08C148.5 146.08 145.33 146.08 139.61 146.08L139.61 172.58C145.33 172.58 148.5 172.58 149.14 172.58Z" fill="#c24f32" id="g6iwSNOIBb"></path></defs><g><g><g><g><use xlink:href="#h6FY56Rlhi" opacity="1" fill="#ffffff" fill-opacity="1"></use></g><g><use xlink:href="#a6GFjzTYNp" opacity="1" fill="#ffffff" fill-opacity="1"></use></g><g><use xlink:href="#cLrVjgCF0" opacity="1" fill="#ffffff" fill-opacity="1"></use></g><g><use xlink:href="#c3BmITFiY" opacity="1" fill="#ffffff" fill-opacity="1"></use></g></g><g><use xlink:href="#d1MdV19MO" opacity="1" fill="#c24f32" fill-opacity="1"></use></g><g><use xlink:href="#g6iwSNOIBb" opacity="1" fill="#c24f32" fill-opacity="1"></use><g><use xlink:href="#g6iwSNOIBb" opacity="1" fill-opacity="0" stroke="#000000" stroke-width="1" stroke-opacity="0"></use></g></g></g></g></svg>