<?xml version="1.0" encoding="UTF-8" standalone="no"?>
<!DOCTYPE svg PUBLIC "-//W3C//DTD SVG 1.1//EN" "http://www.w3.org/Graphics/SVG/1.1/DTD/svg11.dtd">
<svg version="1.1" xmlns="http://www.w3.org/2000/svg" xmlns:xlink="http://www.w3.org/1999/xlink" preserveAspectRatio="xMidYMid meet" viewBox="0 0 300 300" width="300" height="300"><defs><path d="M160.44 5L177.73 5L177.73 33.66L160.44 33.66L160.44 5Z" id="a4xdd4syjk"></path><path d="M72.56 31.86L191.42 31.86L191.42 85.17L72.56 85.17L72.56 31.86Z" id="cKoMzTZVV"></path><path d="M223.34 79.04L250 79.04L250 105.7L223.34 105.7L223.34 79.04Z" id="d4l8sKniCG"></path><path d="M72.2 79.04L227.79 79.04L227.79 269.21L72.2 269.21L72.2 79.04Z" id="fXVWO8XYW"></path><path d="M161.54 32.19L73.07 32.19L73.07 267.81L226.92 267.81L226.92 95.62L250 95.62L250 295L50 295L50 5L161.54 5L161.54 32.19ZM176.92 79.86L176.92 5L250 79.86L176.92 79.86Z" id="amvrqPZNe"></path><path d="M208.39 164.74C208.39 196.11 182.85 221.57 151.38 221.57C119.91 221.57 94.37 196.11 94.37 164.74C94.37 133.37 119.91 107.9 151.38 107.9C182.85 107.9 208.39 133.37 208.39 164.74Z" id="b4SYaFITxW"></path><path d="M190.29 124.06C194.9 128.52 198.78 133.67 201.79 139.33C202.8 141.24 201.04 137.93 201.99 139.72C205.2 145.75 207.19 152.36 207.85 159.16C207.92 159.9 208.11 161.76 208.39 164.74L148.68 164.74C148.25 135.42 147.98 117.09 147.88 109.76C147.86 108.77 148.71 107.98 149.7 108.06C154.98 108.52 155.51 108.56 157.42 108.73C169.49 109.76 180.84 114.92 189.55 123.34C191.08 124.83 187.44 121.31 190.29 124.06Z" fill="#85b1e7" id="awM9Ttgej"></path><path d="M144.91 129.22C147.5 129.22 149.6 131.31 149.6 133.9C149.6 145.1 149.6 174 149.6 185.19C149.6 187.78 147.5 189.88 144.91 189.88C134.25 189.88 106.95 189.88 96.29 189.88C93.7 189.88 91.6 187.78 91.6 185.19C91.6 174 91.6 145.1 91.6 133.9C91.6 131.31 93.7 129.22 96.29 129.22C106.95 129.22 134.25 129.22 144.91 129.22Z" fill="#1a4a86" id="bn9oypmcP"></path><path d="M128.46 142.72C129.47 143.41 130.1 143.85 130.35 144.02C131.94 145.12 133.11 146.71 133.69 148.56C133.91 149.25 133.5 147.96 133.68 148.52C134.42 150.84 134.61 153.3 134.24 155.71C134.15 156.28 134.44 154.35 134.36 154.92C133.99 157.29 132.88 159.48 131.17 161.17C130.63 161.7 132.49 159.87 132.16 160.19C129.77 162.54 126.63 163.96 123.29 164.19C122.33 164.25 119.95 164.41 116.13 164.67L116.13 176.38L109.8 175.72L109.8 142.72L128.46 142.72Z" fill="#ffffff"  id="cnIa98eWQ"></path><path d="M126.49 148.96C126.94 149.46 127.31 150.02 127.58 150.63C127.84 151.21 127.69 150.86 127.82 151.15C128.49 152.64 128.44 154.34 127.69 155.79C127.58 155.99 128.26 154.68 128.11 154.98C127.49 156.17 126.59 157.18 125.48 157.94C125.28 158.08 126.49 157.25 126.32 157.36C125.1 158.2 123.66 158.64 122.18 158.64C121.44 158.64 119.58 158.64 116.59 158.64L116.59 147.64C119.76 147.64 121.74 147.64 122.53 147.64C124.3 147.64 125.98 148.4 127.17 149.71C127.17 149.71 126.25 148.7 126.49 148.96Z" fill="#1a4a86" id="i59SFJAwdu"></path></defs><g><g><g><g><g><use xlink:href="#a4xdd4syjk" opacity="1" fill="#ffffff" fill-opacity="1"></use></g><g><use xlink:href="#cKoMzTZVV" opacity="1" fill="#ffffff" fill-opacity="1"></use></g><g><use xlink:href="#d4l8sKniCG" opacity="1" fill="#ffffff" fill-opacity="1"></use></g><g><use xlink:href="#fXVWO8XYW" opacity="1" fill="#ffffff" fill-opacity="1"></use></g></g><g><use xlink:href="#amvrqPZNe" opacity="1" fill="#2861a8" fill-opacity="1"></use></g></g><g><g><g><use xlink:href="#b4SYaFITxW" opacity="1" fill="#2360ad" fill-opacity="1"></use></g><g><use xlink:href="#awM9Ttgej" opacity="1" fill="#85b1e7" fill-opacity="1"></use><g><use xlink:href="#awM9Ttgej" opacity="1" fill-opacity="0" stroke="#85b1e7" stroke-width="1" stroke-opacity="1"></use></g></g></g><g><use xlink:href="#bn9oypmcP" opacity="1" fill="#1a4a86" fill-opacity="1"></use></g></g><g><g><use xlink:href="#cnIa98eWQ" opacity="1" fill="#ffffff" fill-opacity="1"></use><g><use xlink:href="#cnIa98eWQ" opacity="1" fill-opacity="0" stroke="#ffffff" stroke-width="1" stroke-opacity="1"></use></g></g><g><use xlink:href="#i59SFJAwdu" opacity="1" fill="#1a4a86" fill-opacity="1"></use><g><use xlink:href="#i59SFJAwdu" opacity="1" fill-opacity="0" stroke="#1a4a86" stroke-width="1" stroke-opacity="1"></use></g></g></g></g></g></svg>