<?xml version="1.0" encoding="UTF-8" standalone="no"?>
<!DOCTYPE svg PUBLIC "-//W3C//DTD SVG 1.1//EN" "http://www.w3.org/Graphics/SVG/1.1/DTD/svg11.dtd">
<svg version="1.1" xmlns="http://www.w3.org/2000/svg" xmlns:xlink="http://www.w3.org/1999/xlink" preserveAspectRatio="xMidYMid meet" viewBox="0 0 300 300" width="300" height="300"><defs><path d="M160.44 5L177.73 5L177.73 33.67L160.44 33.67L160.44 5Z" id="d2RSGbNku9"></path><path d="M72.2 31.86L191.06 31.86L191.06 85.17L72.2 85.17L72.2 31.86Z" id="b1zqfQ1ruU"></path><path d="M223.35 79.05L250 79.05L250 105.7L223.35 105.7L223.35 79.05Z" id="f18h0WacXo"></path><path d="M72.2 79.05L227.8 79.05L227.8 269.22L72.2 269.22L72.2 79.05Z" id="d64Ts9twg"></path><path d="M161.54 32.19L73.08 32.19L73.08 267.81L226.92 267.81L226.92 95.62L250 95.62L250 295L50 295L50 5L161.54 5L161.54 32.19ZM176.92 79.86L176.92 5L250 79.86L176.92 79.86Z" id="a84vi0RgC7"></path><path d="" id="b15IKhmkt3"></path><path d="" id="b1lO1XkuXe"></path><path d="" id="i8jmfi3kQK"></path><path d="M210.51 113.26C210.51 113.84 210.51 112.69 210.51 113.26C210.51 114.85 209.22 116.14 207.63 116.14C184 116.14 116 116.14 92.37 116.14C90.78 116.14 89.49 114.85 89.49 113.26C89.49 112.69 89.49 113.84 89.49 113.26C89.49 111.67 90.78 110.38 92.37 110.38C116 110.38 184 110.38 207.63 110.38C209.22 110.38 210.51 111.67 210.51 113.26Z" fill="#2861a8" id="d29ejKvvl"></path><path d="M210.51 132C210.51 132.57 210.51 131.42 210.51 132C210.51 133.59 209.22 134.88 207.63 134.88C184 134.88 116 134.88 92.37 134.88C90.78 134.88 89.49 133.59 89.49 132C89.49 131.42 89.49 132.57 89.49 132C89.49 130.41 90.78 129.12 92.37 129.12C116 129.12 184 129.12 207.63 129.12C209.22 129.12 210.51 130.41 210.51 132Z" fill="#2861a8" id="bDjzOnOR7"></path><path d="M210.51 152.88C210.51 153.46 210.51 152.31 210.51 152.88C210.51 154.47 209.22 155.76 207.63 155.76C184 155.76 116 155.76 92.37 155.76C90.78 155.76 89.49 154.47 89.49 152.88C89.49 152.31 89.49 153.46 89.49 152.88C89.49 151.29 90.78 150 92.37 150C116 150 184 150 207.63 150C209.22 150 210.51 151.29 210.51 152.88Z" fill="#2861a8" id="aLb20rRSH"></path><path d="M210.51 171.62C210.51 172.19 210.51 171.04 210.51 171.62C210.51 173.21 209.22 174.5 207.63 174.5C184 174.5 116 174.5 92.37 174.5C90.78 174.5 89.49 173.21 89.49 171.62C89.49 171.04 89.49 172.19 89.49 171.62C89.49 170.02 90.78 168.73 92.37 168.73C116 168.73 184 168.73 207.63 168.73C209.22 168.73 210.51 170.02 210.51 171.62Z" fill="#2861a8" id="c7apDea3J2"></path><path d="M210.51 192.51C210.51 193.08 210.51 191.93 210.51 192.51C210.51 194.1 209.22 195.39 207.63 195.39C184 195.39 116 195.39 92.37 195.39C90.78 195.39 89.49 194.1 89.49 192.51C89.49 191.93 89.49 193.08 89.49 192.51C89.49 190.91 90.78 189.62 92.37 189.62C116 189.62 184 189.62 207.63 189.62C209.22 189.62 210.51 190.91 210.51 192.51Z" fill="#2861a8" id="b23MwLSFLP"></path><path d="M210.51 211.24C210.51 211.82 210.51 210.66 210.51 211.24C210.51 212.83 209.22 214.12 207.63 214.12C184 214.12 116 214.12 92.37 214.12C90.78 214.12 89.49 212.83 89.49 211.24C89.49 210.66 89.49 211.82 89.49 211.24C89.49 209.65 90.78 208.36 92.37 208.36C116 208.36 184 208.36 207.63 208.36C209.22 208.36 210.51 209.65 210.51 211.24Z" fill="#2861a8" id="e1Pmghp4yq"></path></defs><g><g><g><use xlink:href="#d2RSGbNku9" opacity="1" fill="#ffffff" fill-opacity="1"></use></g><g><use xlink:href="#b1zqfQ1ruU" opacity="1" fill="#ffffff" fill-opacity="1"></use></g><g><use xlink:href="#f18h0WacXo" opacity="1" fill="#ffffff" fill-opacity="1"></use></g><g><use xlink:href="#d64Ts9twg" opacity="1" fill="#ffffff" fill-opacity="1"></use></g><g><use xlink:href="#a84vi0RgC7" opacity="1" fill="#2861a8" fill-opacity="1"></use></g><g><g><use xlink:href="#b15IKhmkt3" opacity="1" fill-opacity="0" stroke="#000000" stroke-width="1" stroke-opacity="1"></use></g></g><g><g><use xlink:href="#b1lO1XkuXe" opacity="1" fill-opacity="0" stroke="#000000" stroke-width="1" stroke-opacity="1"></use></g></g><g><g><use xlink:href="#i8jmfi3kQK" opacity="1" fill-opacity="0" stroke="#2861a8" stroke-width="1" stroke-opacity="1"></use></g></g><g><use xlink:href="#d29ejKvvl" opacity="1" fill="#2861a8" fill-opacity="1"></use><g><use xlink:href="#d29ejKvvl" opacity="1" fill-opacity="0" stroke="#000000" stroke-width="1" stroke-opacity="0"></use></g></g><g><use xlink:href="#bDjzOnOR7" opacity="1" fill="#2861a8" fill-opacity="1"></use><g><use xlink:href="#bDjzOnOR7" opacity="1" fill-opacity="0" stroke="#000000" stroke-width="1" stroke-opacity="0"></use></g></g><g><use xlink:href="#aLb20rRSH" opacity="1" fill="#2861a8" fill-opacity="1"></use><g><use xlink:href="#aLb20rRSH" opacity="1" fill-opacity="0" stroke="#000000" stroke-width="1" stroke-opacity="0"></use></g></g><g><use xlink:href="#c7apDea3J2" opacity="1" fill="#2861a8" fill-opacity="1"></use><g><use xlink:href="#c7apDea3J2" opacity="1" fill-opacity="0" stroke="#000000" stroke-width="1" stroke-opacity="0"></use></g></g><g><use xlink:href="#b23MwLSFLP" opacity="1" fill="#2861a8" fill-opacity="1"></use><g><use xlink:href="#b23MwLSFLP" opacity="1" fill-opacity="0" stroke="#000000" stroke-width="1" stroke-opacity="0"></use></g></g><g><use xlink:href="#e1Pmghp4yq" opacity="1" fill="#2861a8" fill-opacity="1"></use><g><use xlink:href="#e1Pmghp4yq" opacity="1" fill-opacity="0" stroke="#000000" stroke-width="1" stroke-opacity="0"></use></g></g></g></g></svg>