<?xml version="1.0" encoding="UTF-8" standalone="no"?>
<!DOCTYPE svg PUBLIC "-//W3C//DTD SVG 1.1//EN" "http://www.w3.org/Graphics/SVG/1.1/DTD/svg11.dtd">
<svg version="1.1" xmlns="http://www.w3.org/2000/svg" xmlns:xlink="http://www.w3.org/1999/xlink" preserveAspectRatio="xMidYMid meet" viewBox="0 0 300 300" width="300" height="300"><defs><path d="M160.44 5L177.73 5L177.73 33.66L160.44 33.66L160.44 5Z" id="jntbJHyRr"></path><path d="M72.56 31.86L191.42 31.86L191.42 85.17L72.56 85.17L72.56 31.86Z" id="d6jJtvQD3q"></path><path d="M223.34 79.04L250 79.04L250 105.7L223.34 105.7L223.34 79.04Z" id="auyHLLD8S"></path><path d="M72.2 79.04L227.79 79.04L227.79 269.21L72.2 269.21L72.2 79.04Z" id="c1zvrczgP6"></path><path d="M161.54 32.19L73.07 32.19L73.07 267.81L226.92 267.81L226.92 95.62L250 95.62L250 295L50 295L50 5L161.54 5L161.54 32.19ZM176.92 79.86L176.92 5L250 79.86L176.92 79.86Z" fill="#6b533b" id="aDROV89vt"></path><path d="M92.5 195.81L157.97 195.81L157.97 214L92.5 214L92.5 195.81M92.5 159.61L207.5 159.61L207.5 177.81L92.5 177.81L92.5 159.61ZM92.5 124L207.5 124L207.5 142.2L92.5 142.2L92.5 124Z" fill="#6b533b" id="a4yAp7Cduw"></path></defs><g><g><g><g><use xlink:href="#jntbJHyRr" opacity="1" fill="#ffffff" fill-opacity="1"></use></g><g><use xlink:href="#d6jJtvQD3q" opacity="1" fill="#ffffff" fill-opacity="1"></use></g><g><use xlink:href="#auyHLLD8S" opacity="1" fill="#ffffff" fill-opacity="1"></use></g><g><use xlink:href="#c1zvrczgP6" opacity="1" fill="#ffffff" fill-opacity="1"></use></g></g><g><use xlink:href="#aDROV89vt" opacity="1" fill="#6b533b" fill-opacity="1"></use></g><g><use xlink:href="#a4yAp7Cduw" opacity="1" fill="#6b533b" fill-opacity="1"></use><g><use xlink:href="#a4yAp7Cduw" opacity="1" fill-opacity="0" stroke="#000000" stroke-width="1" stroke-opacity="0"></use></g></g></g></g></svg>