<?xml version="1.0" encoding="UTF-8" standalone="no"?>
<!DOCTYPE svg PUBLIC "-//W3C//DTD SVG 1.1//EN" "http://www.w3.org/Graphics/SVG/1.1/DTD/svg11.dtd">
<svg version="1.1" xmlns="http://www.w3.org/2000/svg" xmlns:xlink="http://www.w3.org/1999/xlink" preserveAspectRatio="xMidYMid meet" viewBox="0 0 200 300" width="200" height="300"><defs><path d="M0 0L200.85 0L200.85 300L0 300L0 0Z" id="h2V4aimkp"></path><path d="M110.96 32.19L26.92 32.19L26.92 267.81L173.08 267.81L173.08 95.62L195 95.62L195 295L5 295L5 5L110.96 5L110.96 32.19ZM125.58 79.86L125.58 5L195 79.86L125.58 79.86Z" id="bk6Pq2il8"></path><path d="" id="b15IKhmkt3"></path><path d="" id="b1lO1XkuXe"></path><path d="" id="i8jmfi3kQK"></path><path d="M40.54 108.99L160.32 108.99L160.32 117.27L40.54 117.27L40.54 108.99Z" id="a7nwxfLeU"></path><path d="M40.54 129.87L160.32 129.87L160.32 138.14L40.54 138.14L40.54 129.87Z" id="ae635CSgX"></path><path d="M40.54 151.45L160.32 151.45L160.32 159.72L40.54 159.72L40.54 151.45Z" id="lftrIcAaA"></path><path d="M40.54 172.32L160.32 172.32L160.32 180.6L40.54 180.6L40.54 172.32Z" id="c1ppnLrpDu"></path><path d="M40.54 194.63L160.32 194.63L160.32 202.9L40.54 202.9L40.54 194.63Z" id="dsawGk6VL"></path><path d="M40.54 215.5L160.32 215.5L160.32 223.77L40.54 223.77L40.54 215.5Z" id="aK6I5i1Sj"></path></defs><g><g><g><use xlink:href="#h2V4aimkp" opacity="1" fill="#ffffff" fill-opacity="1"></use></g><g><use xlink:href="#bk6Pq2il8" opacity="1" fill="#2861a8" fill-opacity="1"></use></g><g><g><use xlink:href="#b15IKhmkt3" opacity="1" fill-opacity="0" stroke="#000000" stroke-width="1" stroke-opacity="1"></use></g></g><g><g><use xlink:href="#b1lO1XkuXe" opacity="1" fill-opacity="0" stroke="#000000" stroke-width="1" stroke-opacity="1"></use></g></g><g><g><use xlink:href="#i8jmfi3kQK" opacity="1" fill-opacity="0" stroke="#2861a8" stroke-width="1" stroke-opacity="1"></use></g></g><g><use xlink:href="#a7nwxfLeU" opacity="1" fill="#2861a8" fill-opacity="1"></use></g><g><use xlink:href="#ae635CSgX" opacity="1" fill="#2861a8" fill-opacity="1"></use></g><g><use xlink:href="#lftrIcAaA" opacity="1" fill="#2861a8" fill-opacity="1"></use></g><g><use xlink:href="#c1ppnLrpDu" opacity="1" fill="#2861a8" fill-opacity="1"></use></g><g><use xlink:href="#dsawGk6VL" opacity="1" fill="#2861a8" fill-opacity="1"></use></g><g><use xlink:href="#aK6I5i1Sj" opacity="1" fill="#2861a8" fill-opacity="1"></use></g></g></g></svg>