<?xml version="1.0" encoding="UTF-8" standalone="no"?>
<!DOCTYPE svg PUBLIC "-//W3C//DTD SVG 1.1//EN" "http://www.w3.org/Graphics/SVG/1.1/DTD/svg11.dtd">
<svg version="1.1" xmlns="http://www.w3.org/2000/svg" xmlns:xlink="http://www.w3.org/1999/xlink" preserveAspectRatio="xMidYMid meet" viewBox="0 0 300 300" width="300" height="300"><defs><path d="M160.44 5L177.73 5L177.73 33.67L160.44 33.67L160.44 5Z" id="d2RSGbNku9"></path><path d="M72.2 31.86L191.06 31.86L191.06 85.17L72.2 85.17L72.2 31.86Z" id="b1zqfQ1ruU"></path><path d="M223.35 79.05L250 79.05L250 105.7L223.35 105.7L223.35 79.05Z" id="f18h0WacXo"></path><path d="M72.2 79.05L227.8 79.05L227.8 269.22L72.2 269.22L72.2 79.05Z" id="d64Ts9twg"></path><path d="M161.54 32.19L73.08 32.19L73.08 267.81L226.92 267.81L226.92 95.62L250 95.62L250 295L50 295L50 5L161.54 5L161.54 32.19ZM176.92 79.86L176.92 5L250 79.86L176.92 79.86Z" id="a84vi0RgC7"></path><path d="" id="b15IKhmkt3"></path><path d="" id="b1lO1XkuXe"></path><path d="" id="i8jmfi3kQK"></path><path d="M192.81 244.28L107.2 244.28L107.2 101.83L192.81 101.83L192.81 244.28Z" fill="#2861a8" id="a1tGKXqbdW"></path><path d="M192.81 244.28L107.2 244.28L107.2 101.83L192.81 101.83L192.81 244.28Z" fill="#2861a8" id="b72U290vA"></path><path d="M119.81 116.19L112.26 116.19L112.26 103.96L119.81 103.96L119.81 116.19Z" fill="#ffffff" id="h1CysR76XH"></path><path d="M119.81 116.19L112.26 116.19L112.26 103.96L119.81 103.96L119.81 116.19Z" fill="#ffffff" id="b2kAVVHdB"></path><path d="M119.81 134.54L112.26 134.54L112.26 122.31L119.81 122.31L119.81 134.54Z" fill="#ffffff" id="aFrqCMhac"></path><path d="M119.81 134.54L112.26 134.54L112.26 122.31L119.81 122.31L119.81 134.54Z" fill="#ffffff" id="e2xnmB8Zid"></path><path d="M119.81 153.26L112.26 153.26L112.26 141.03L119.81 141.03L119.81 153.26Z" fill="#ffffff" id="d1fqRAohiz"></path><path d="M119.81 153.26L112.26 153.26L112.26 141.03L119.81 141.03L119.81 153.26Z" fill="#ffffff" id="aJr1hjJGe"></path><path d="M119.81 171.26L112.26 171.26L112.26 159.03L119.81 159.03L119.81 171.26Z" fill="#ffffff" id="dyuS3SsI1"></path><path d="M119.81 171.26L112.26 171.26L112.26 159.03L119.81 159.03L119.81 171.26Z" fill="#ffffff" id="a2mKWpIGL"></path><path d="M119.81 187.8L112.26 187.8L112.26 175.57L119.81 175.57L119.81 187.8Z" fill="#ffffff" id="e1IQ0Qwwvm"></path><path d="M119.81 187.8L112.26 187.8L112.26 175.57L119.81 175.57L119.81 187.8Z" fill="#ffffff" id="d14wcO1WPf"></path><path d="M119.81 206.16L112.26 206.16L112.26 193.93L119.81 193.93L119.81 206.16Z" fill="#ffffff" id="bxoFnwCpE"></path><path d="M119.81 206.16L112.26 206.16L112.26 193.93L119.81 193.93L119.81 206.16Z" fill="#ffffff" id="c45tniQxk7"></path><path d="M119.81 224.87L112.26 224.87L112.26 212.64L119.81 212.64L119.81 224.87Z" fill="#ffffff" id="a2DH7imqIc"></path><path d="M119.81 224.87L112.26 224.87L112.26 212.64L119.81 212.64L119.81 224.87Z" fill="#ffffff" id="g29oMGjOrb"></path><path d="M119.81 242.15L112.26 242.15L112.26 229.92L119.81 229.92L119.81 242.15Z" fill="#ffffff" id="bm9qYCTB8"></path><path d="M119.81 242.15L112.26 242.15L112.26 229.92L119.81 229.92L119.81 242.15Z" fill="#ffffff" id="aaT7CAvVm"></path><path d="M189.76 171.26L182.21 171.26L182.21 159.03L189.76 159.03L189.76 171.26Z" fill="#ffffff" id="amHLW56TZ"></path><path d="M189.76 171.26L182.21 171.26L182.21 159.03L189.76 159.03L189.76 171.26Z" fill="#ffffff" id="a1B6zPNHmM"></path><path d="M189.76 187.8L182.21 187.8L182.21 175.57L189.76 175.57L189.76 187.8Z" fill="#ffffff" id="acbtSctQg"></path><path d="M189.76 187.8L182.21 187.8L182.21 175.57L189.76 175.57L189.76 187.8Z" fill="#ffffff" id="bgmXw1OlS"></path><path d="M189.76 206.16L182.21 206.16L182.21 193.93L189.76 193.93L189.76 206.16Z" fill="#ffffff" id="aHhFgZx3J"></path><path d="M189.76 206.16L182.21 206.16L182.21 193.93L189.76 193.93L189.76 206.16Z" fill="#ffffff" id="fhM6D6im5"></path><path d="M189.76 224.87L182.21 224.87L182.21 212.64L189.76 212.64L189.76 224.87Z" fill="#ffffff" id="a3BrnZxUq"></path><path d="M189.76 224.87L182.21 224.87L182.21 212.64L189.76 212.64L189.76 224.87Z" fill="#ffffff" id="bw5tCUDQq"></path><path d="M189.76 242.15L182.21 242.15L182.21 229.92L189.76 229.92L189.76 242.15Z" fill="#ffffff" id="csvLpq2BS"></path><path d="M189.76 242.15L182.21 242.15L182.21 229.92L189.76 229.92L189.76 242.15Z" fill="#ffffff" id="a9W3qdJhOr"></path><path d="M189.76 116.19L182.21 116.19L182.21 103.96L189.76 103.96L189.76 116.19Z" fill="#ffffff" id="eaoj72Ok8"></path><path d="M189.76 116.19L182.21 116.19L182.21 103.96L189.76 103.96L189.76 116.19Z" fill="#ffffff" id="m8ZMnM6r2"></path><path d="M189.76 134.54L182.21 134.54L182.21 122.31L189.76 122.31L189.76 134.54Z" fill="#ffffff" id="bcK7lrAZB"></path><path d="M189.76 134.54L182.21 134.54L182.21 122.31L189.76 122.31L189.76 134.54Z" fill="#ffffff" id="hpGJ7qyB1"></path><path d="M189.76 153.26L182.21 153.26L182.21 141.03L189.76 141.03L189.76 153.26Z" fill="#ffffff" id="bqmvytNVK"></path><path d="M189.76 153.26L182.21 153.26L182.21 141.03L189.76 141.03L189.76 153.26Z" fill="#ffffff" id="a5fVz2C9c"></path><path d="M187.23 138.49L112.77 138.49L112.77 137.41L187.23 137.41L187.23 138.49Z" fill="#ffffff" id="cZsX9dYeS"></path><path d="M187.23 138.49L112.77 138.49L112.77 137.41L187.23 137.41L187.23 138.49Z" fill="#ffffff" id="bzBIRWCW8"></path><path d="M190.49 191.78L116.03 191.78L116.03 190.7L190.49 190.7L190.49 191.78Z" fill="#ffffff" id="bm2jQeVu4"></path><path d="M190.49 191.78L116.03 191.78L116.03 190.7L190.49 190.7L190.49 191.78Z" fill="#ffffff" id="dVIm7PfFu"></path><path d="M137.53 167.64L137.41 151.08L151.14 159.26L164.87 167.45L151.26 175.82L137.65 184.2L137.53 167.64Z" fill="#ffffff" id="d1ibPK5gSv"></path><path d="M137.53 167.64L137.41 151.08L151.14 159.26L164.87 167.45L151.26 175.82L137.65 184.2L137.53 167.64Z" fill="#ffffff" id="b5JtWOQZFI"></path></defs><g><g><g><use xlink:href="#d2RSGbNku9" opacity="1" fill="#ffffff" fill-opacity="1"></use></g><g><use xlink:href="#b1zqfQ1ruU" opacity="1" fill="#ffffff" fill-opacity="1"></use></g><g><use xlink:href="#f18h0WacXo" opacity="1" fill="#ffffff" fill-opacity="1"></use></g><g><use xlink:href="#d64Ts9twg" opacity="1" fill="#ffffff" fill-opacity="1"></use></g><g><use xlink:href="#a84vi0RgC7" opacity="1" fill="#2861a8" fill-opacity="1"></use></g><g><g><use xlink:href="#b15IKhmkt3" opacity="1" fill-opacity="0" stroke="#000000" stroke-width="1" stroke-opacity="1"></use></g></g><g><g><use xlink:href="#b1lO1XkuXe" opacity="1" fill-opacity="0" stroke="#000000" stroke-width="1" stroke-opacity="1"></use></g></g><g><g><use xlink:href="#i8jmfi3kQK" opacity="1" fill-opacity="0" stroke="#2861a8" stroke-width="1" stroke-opacity="1"></use></g></g><g><use xlink:href="#a1tGKXqbdW" opacity="1" fill="#2861a8" fill-opacity="1"></use><g><use xlink:href="#a1tGKXqbdW" opacity="1" fill-opacity="0" stroke="#000000" stroke-width="1" stroke-opacity="0"></use></g></g><g><use xlink:href="#b72U290vA" opacity="1" fill="#000000" fill-opacity="0"></use><g><use xlink:href="#b72U290vA" opacity="1" fill-opacity="0" stroke="#000000" stroke-width="1" stroke-opacity="0"></use></g></g><g><use xlink:href="#h1CysR76XH" opacity="1" fill="#ffffff" fill-opacity="1"></use><g><use xlink:href="#h1CysR76XH" opacity="1" fill-opacity="0" stroke="#000000" stroke-width="1" stroke-opacity="0"></use></g></g><g><use xlink:href="#b2kAVVHdB" opacity="1" fill="#000000" fill-opacity="0"></use><g><use xlink:href="#b2kAVVHdB" opacity="1" fill-opacity="0" stroke="#000000" stroke-width="1" stroke-opacity="0"></use></g></g><g><use xlink:href="#aFrqCMhac" opacity="1" fill="#ffffff" fill-opacity="1"></use><g><use xlink:href="#aFrqCMhac" opacity="1" fill-opacity="0" stroke="#000000" stroke-width="1" stroke-opacity="0"></use></g></g><g><use xlink:href="#e2xnmB8Zid" opacity="1" fill="#000000" fill-opacity="0"></use><g><use xlink:href="#e2xnmB8Zid" opacity="1" fill-opacity="0" stroke="#000000" stroke-width="1" stroke-opacity="0"></use></g></g><g><use xlink:href="#d1fqRAohiz" opacity="1" fill="#ffffff" fill-opacity="1"></use><g><use xlink:href="#d1fqRAohiz" opacity="1" fill-opacity="0" stroke="#000000" stroke-width="1" stroke-opacity="0"></use></g></g><g><use xlink:href="#aJr1hjJGe" opacity="1" fill="#000000" fill-opacity="0"></use><g><use xlink:href="#aJr1hjJGe" opacity="1" fill-opacity="0" stroke="#000000" stroke-width="1" stroke-opacity="0"></use></g></g><g><use xlink:href="#dyuS3SsI1" opacity="1" fill="#ffffff" fill-opacity="1"></use><g><use xlink:href="#dyuS3SsI1" opacity="1" fill-opacity="0" stroke="#000000" stroke-width="1" stroke-opacity="0"></use></g></g><g><use xlink:href="#a2mKWpIGL" opacity="1" fill="#000000" fill-opacity="0"></use><g><use xlink:href="#a2mKWpIGL" opacity="1" fill-opacity="0" stroke="#000000" stroke-width="1" stroke-opacity="0"></use></g></g><g><use xlink:href="#e1IQ0Qwwvm" opacity="1" fill="#ffffff" fill-opacity="1"></use><g><use xlink:href="#e1IQ0Qwwvm" opacity="1" fill-opacity="0" stroke="#000000" stroke-width="1" stroke-opacity="0"></use></g></g><g><use xlink:href="#d14wcO1WPf" opacity="1" fill="#000000" fill-opacity="0"></use><g><use xlink:href="#d14wcO1WPf" opacity="1" fill-opacity="0" stroke="#000000" stroke-width="1" stroke-opacity="0"></use></g></g><g><use xlink:href="#bxoFnwCpE" opacity="1" fill="#ffffff" fill-opacity="1"></use><g><use xlink:href="#bxoFnwCpE" opacity="1" fill-opacity="0" stroke="#000000" stroke-width="1" stroke-opacity="0"></use></g></g><g><use xlink:href="#c45tniQxk7" opacity="1" fill="#000000" fill-opacity="0"></use><g><use xlink:href="#c45tniQxk7" opacity="1" fill-opacity="0" stroke="#000000" stroke-width="1" stroke-opacity="0"></use></g></g><g><use xlink:href="#a2DH7imqIc" opacity="1" fill="#ffffff" fill-opacity="1"></use><g><use xlink:href="#a2DH7imqIc" opacity="1" fill-opacity="0" stroke="#000000" stroke-width="1" stroke-opacity="0"></use></g></g><g><use xlink:href="#g29oMGjOrb" opacity="1" fill="#000000" fill-opacity="0"></use><g><use xlink:href="#g29oMGjOrb" opacity="1" fill-opacity="0" stroke="#000000" stroke-width="1" stroke-opacity="0"></use></g></g><g><use xlink:href="#bm9qYCTB8" opacity="1" fill="#ffffff" fill-opacity="1"></use><g><use xlink:href="#bm9qYCTB8" opacity="1" fill-opacity="0" stroke="#000000" stroke-width="1" stroke-opacity="0"></use></g></g><g><use xlink:href="#aaT7CAvVm" opacity="1" fill="#000000" fill-opacity="0"></use><g><use xlink:href="#aaT7CAvVm" opacity="1" fill-opacity="0" stroke="#000000" stroke-width="1" stroke-opacity="0"></use></g></g><g><use xlink:href="#amHLW56TZ" opacity="1" fill="#ffffff" fill-opacity="1"></use><g><use xlink:href="#amHLW56TZ" opacity="1" fill-opacity="0" stroke="#000000" stroke-width="1" stroke-opacity="0"></use></g></g><g><use xlink:href="#a1B6zPNHmM" opacity="1" fill="#000000" fill-opacity="0"></use><g><use xlink:href="#a1B6zPNHmM" opacity="1" fill-opacity="0" stroke="#000000" stroke-width="1" stroke-opacity="0"></use></g></g><g><use xlink:href="#acbtSctQg" opacity="1" fill="#ffffff" fill-opacity="1"></use><g><use xlink:href="#acbtSctQg" opacity="1" fill-opacity="0" stroke="#000000" stroke-width="1" stroke-opacity="0"></use></g></g><g><use xlink:href="#bgmXw1OlS" opacity="1" fill="#000000" fill-opacity="0"></use><g><use xlink:href="#bgmXw1OlS" opacity="1" fill-opacity="0" stroke="#000000" stroke-width="1" stroke-opacity="0"></use></g></g><g><use xlink:href="#aHhFgZx3J" opacity="1" fill="#ffffff" fill-opacity="1"></use><g><use xlink:href="#aHhFgZx3J" opacity="1" fill-opacity="0" stroke="#000000" stroke-width="1" stroke-opacity="0"></use></g></g><g><use xlink:href="#fhM6D6im5" opacity="1" fill="#000000" fill-opacity="0"></use><g><use xlink:href="#fhM6D6im5" opacity="1" fill-opacity="0" stroke="#000000" stroke-width="1" stroke-opacity="0"></use></g></g><g><use xlink:href="#a3BrnZxUq" opacity="1" fill="#ffffff" fill-opacity="1"></use><g><use xlink:href="#a3BrnZxUq" opacity="1" fill-opacity="0" stroke="#000000" stroke-width="1" stroke-opacity="0"></use></g></g><g><use xlink:href="#bw5tCUDQq" opacity="1" fill="#000000" fill-opacity="0"></use><g><use xlink:href="#bw5tCUDQq" opacity="1" fill-opacity="0" stroke="#000000" stroke-width="1" stroke-opacity="0"></use></g></g><g><use xlink:href="#csvLpq2BS" opacity="1" fill="#ffffff" fill-opacity="1"></use><g><use xlink:href="#csvLpq2BS" opacity="1" fill-opacity="0" stroke="#000000" stroke-width="1" stroke-opacity="0"></use></g></g><g><use xlink:href="#a9W3qdJhOr" opacity="1" fill="#000000" fill-opacity="0"></use><g><use xlink:href="#a9W3qdJhOr" opacity="1" fill-opacity="0" stroke="#000000" stroke-width="1" stroke-opacity="0"></use></g></g><g><use xlink:href="#eaoj72Ok8" opacity="1" fill="#ffffff" fill-opacity="1"></use><g><use xlink:href="#eaoj72Ok8" opacity="1" fill-opacity="0" stroke="#000000" stroke-width="1" stroke-opacity="0"></use></g></g><g><use xlink:href="#m8ZMnM6r2" opacity="1" fill="#000000" fill-opacity="0"></use><g><use xlink:href="#m8ZMnM6r2" opacity="1" fill-opacity="0" stroke="#000000" stroke-width="1" stroke-opacity="0"></use></g></g><g><use xlink:href="#bcK7lrAZB" opacity="1" fill="#ffffff" fill-opacity="1"></use><g><use xlink:href="#bcK7lrAZB" opacity="1" fill-opacity="0" stroke="#000000" stroke-width="1" stroke-opacity="0"></use></g></g><g><use xlink:href="#hpGJ7qyB1" opacity="1" fill="#000000" fill-opacity="0"></use><g><use xlink:href="#hpGJ7qyB1" opacity="1" fill-opacity="0" stroke="#000000" stroke-width="1" stroke-opacity="0"></use></g></g><g><use xlink:href="#bqmvytNVK" opacity="1" fill="#ffffff" fill-opacity="1"></use><g><use xlink:href="#bqmvytNVK" opacity="1" fill-opacity="0" stroke="#000000" stroke-width="1" stroke-opacity="0"></use></g></g><g><use xlink:href="#a5fVz2C9c" opacity="1" fill="#000000" fill-opacity="0"></use><g><use xlink:href="#a5fVz2C9c" opacity="1" fill-opacity="0" stroke="#000000" stroke-width="1" stroke-opacity="0"></use></g></g><g><use xlink:href="#cZsX9dYeS" opacity="1" fill="#e7eef6" fill-opacity="1"></use><g><use xlink:href="#cZsX9dYeS" opacity="1" fill-opacity="0" stroke="#000000" stroke-width="1" stroke-opacity="0"></use></g></g><g><use xlink:href="#bzBIRWCW8" opacity="1" fill="#000000" fill-opacity="0"></use><g><use xlink:href="#bzBIRWCW8" opacity="1" fill-opacity="0" stroke="#000000" stroke-width="1" stroke-opacity="0"></use></g></g><g><use xlink:href="#bm2jQeVu4" opacity="1" fill="#e7eef6" fill-opacity="1"></use><g><use xlink:href="#bm2jQeVu4" opacity="1" fill-opacity="0" stroke="#000000" stroke-width="1" stroke-opacity="0"></use></g></g><g><use xlink:href="#dVIm7PfFu" opacity="1" fill="#000000" fill-opacity="0"></use><g><use xlink:href="#dVIm7PfFu" opacity="1" fill-opacity="0" stroke="#000000" stroke-width="1" stroke-opacity="0"></use></g></g><g><use xlink:href="#d1ibPK5gSv" opacity="1" fill="#e7eef6" fill-opacity="1"></use><g><use xlink:href="#d1ibPK5gSv" opacity="1" fill-opacity="0" stroke="#000000" stroke-width="1" stroke-opacity="0"></use></g></g><g><use xlink:href="#b5JtWOQZFI" opacity="1" fill="#000000" fill-opacity="0"></use><g><use xlink:href="#b5JtWOQZFI" opacity="1" fill-opacity="0" stroke="#000000" stroke-width="1" stroke-opacity="0"></use></g></g></g></g></svg>