<?xml version="1.0" encoding="UTF-8" standalone="no"?>
<!DOCTYPE svg PUBLIC "-//W3C//DTD SVG 1.1//EN" "http://www.w3.org/Graphics/SVG/1.1/DTD/svg11.dtd">
<svg version="1.1" xmlns="http://www.w3.org/2000/svg" xmlns:xlink="http://www.w3.org/1999/xlink" preserveAspectRatio="xMidYMid meet" viewBox="0 0 300 300" width="300" height="300"><defs><path d="M160.44 5L177.73 5L177.73 33.66L160.44 33.66L160.44 5Z" id="b1L6mk0II"></path><path d="M72.56 31.86L191.42 31.86L191.42 85.17L72.56 85.17L72.56 31.86Z" id="cIvG6UNV0"></path><path d="M223.34 79.04L250 79.04L250 105.7L223.34 105.7L223.34 79.04Z" id="a72hqdGU7j"></path><path d="M72.2 79.04L227.79 79.04L227.79 269.21L72.2 269.21L72.2 79.04Z" id="aAT7OWRct"></path><path d="M161.54 32.19L73.07 32.19L73.07 267.81L226.92 267.81L226.92 95.62L250 95.62L250 295L50 295L50 5L161.54 5L161.54 32.19ZM176.92 79.86L176.92 5L250 79.86L176.92 79.86Z" id="fw6Ee75D5"></path><path d="M92.5 214L207.5 214L207.5 124L92.5 124L92.5 214ZM99.83 207.12L99.83 193.36L114.11 193.36L114.11 207.12L99.83 207.12ZM99.83 186.48L99.83 172.72L114.11 172.72L114.11 186.48L99.83 186.48ZM99.83 165.65L99.83 151.89L114.11 151.89L114.11 165.65L99.83 165.65ZM99.83 144.82L99.83 131.07L114.11 131.07L114.11 144.82L99.83 144.82ZM135.72 144.82L171.61 169.09L135.72 193.36L135.72 144.82ZM186.08 207.12L186.08 193.36L200.36 193.36L200.36 207.12L186.08 207.12ZM186.08 186.48L186.08 172.72L200.36 172.72L200.36 186.48L186.08 186.48ZM186.08 165.65L186.08 151.89L200.36 151.89L200.36 165.65L186.08 165.65ZM186.08 144.82L186.08 131.07L200.36 131.07L200.36 144.82L186.08 144.82Z" fill="#ef6f2e" id="a9rRaRcVu"></path></defs><g><g><g><g><use xlink:href="#b1L6mk0II" opacity="1" fill="#ffffff" fill-opacity="1"></use></g><g><use xlink:href="#cIvG6UNV0" opacity="1" fill="#ffffff" fill-opacity="1"></use></g><g><use xlink:href="#a72hqdGU7j" opacity="1" fill="#ffffff" fill-opacity="1"></use></g><g><use xlink:href="#aAT7OWRct" opacity="1" fill="#ffffff" fill-opacity="1"></use></g></g><g><use xlink:href="#fw6Ee75D5" opacity="1" fill="#ef6f2e" fill-opacity="1"></use></g><g><use xlink:href="#a9rRaRcVu" opacity="1" fill="#ef6f2e" fill-opacity="1"></use><g><use xlink:href="#a9rRaRcVu" opacity="1" fill-opacity="0" stroke="#000000" stroke-width="1" stroke-opacity="0"></use></g></g></g></g></svg>