<?xml version="1.0" encoding="UTF-8" standalone="no"?>
<!DOCTYPE svg PUBLIC "-//W3C//DTD SVG 1.1//EN" "http://www.w3.org/Graphics/SVG/1.1/DTD/svg11.dtd">
<svg version="1.1" xmlns="http://www.w3.org/2000/svg" xmlns:xlink="http://www.w3.org/1999/xlink" preserveAspectRatio="xMidYMid meet" viewBox="0 0 200 300" width="200" height="300"><defs><path d="M0 0L200.85 0L200.85 300L0 300L0 0Z" id="h2V4aimkp"></path><path d="M110.96 32.19L26.92 32.19L26.92 267.81L173.08 267.81L173.08 95.62L195 95.62L195 295L5 295L5 5L110.96 5L110.96 32.19ZM125.58 79.86L125.58 5L195 79.86L125.58 79.86Z" id="a5XqBGCbh"></path><path d="" id="b15IKhmkt3"></path><path d="" id="b1lO1XkuXe"></path><path d="" id="i8jmfi3kQK"></path><path d="M57.62 97.84L143.23 97.84L143.23 240.29L57.62 240.29L57.62 97.84Z" id="aYnMcm6bH"></path><path d="M61.51 103.6L69.06 103.6L69.06 115.83L61.51 115.83L61.51 103.6Z" id="b2f8Ijtvzf"></path><path d="M61.51 121.95L69.06 121.95L69.06 134.18L61.51 134.18L61.51 121.95Z" id="bfg5nLopN"></path><path d="M61.51 140.67L69.06 140.67L69.06 152.9L61.51 152.9L61.51 140.67Z" id="caOAB0pbq"></path><path d="M61.51 158.67L69.06 158.67L69.06 170.9L61.51 170.9L61.51 158.67Z" id="b19CcSbASG"></path><path d="M61.51 175.21L69.06 175.21L69.06 187.44L61.51 187.44L61.51 175.21Z" id="e1khItSOG"></path><path d="M61.51 193.57L69.06 193.57L69.06 205.8L61.51 205.8L61.51 193.57Z" id="hyJNxBGhA"></path><path d="M61.51 212.28L69.06 212.28L69.06 224.51L61.51 224.51L61.51 212.28Z" id="a5503i2IdI"></path><path d="M61.51 229.56L69.06 229.56L69.06 241.79L61.51 241.79L61.51 229.56Z" id="c74G5ZTDc"></path><path d="M131.07 158.67L138.62 158.67L138.62 170.9L131.07 170.9L131.07 158.67Z" id="beRjRgDgv"></path><path d="M131.07 175.21L138.62 175.21L138.62 187.44L131.07 187.44L131.07 175.21Z" id="b7lnFycyjo"></path><path d="M131.07 193.57L138.62 193.57L138.62 205.8L131.07 205.8L131.07 193.57Z" id="a5sECkNHYe"></path><path d="M131.07 212.28L138.62 212.28L138.62 224.51L131.07 224.51L131.07 212.28Z" id="e5lAY9WVun"></path><path d="M131.07 229.56L138.62 229.56L138.62 241.79L131.07 241.79L131.07 229.56Z" id="bdbJqctUS"></path><path d="M131.07 103.6L138.62 103.6L138.62 115.83L131.07 115.83L131.07 103.6Z" id="bCvI7JZ6M"></path><path d="M131.07 121.95L138.62 121.95L138.62 134.18L131.07 134.18L131.07 121.95Z" id="b85G6eAqx4"></path><path d="M131.07 140.67L138.62 140.67L138.62 152.9L131.07 152.9L131.07 140.67Z" id="aiaH0pEd3"></path><path d="M62.95 136.69L137.41 136.69L137.41 137.77L62.95 137.77L62.95 136.69Z" id="ahaygsrkj"></path><path d="M62.95 190.7L137.41 190.7L137.41 191.78L62.95 191.78L62.95 190.7Z" id="cfLJRqWDI"></path><path d="M104.75 174.74L91.14 183.12L91.02 166.56L90.9 150L104.63 158.18L118.36 166.37L104.75 174.74Z" id="e26NP5jqrg"></path></defs><g><g><g><use xlink:href="#h2V4aimkp" opacity="1" fill="#ffffff" fill-opacity="1"></use></g><g><use xlink:href="#a5XqBGCbh" opacity="1" fill="#2861a8" fill-opacity="1"></use></g><g><g><use xlink:href="#b15IKhmkt3" opacity="1" fill-opacity="0" stroke="#000000" stroke-width="1" stroke-opacity="1"></use></g></g><g><g><use xlink:href="#b1lO1XkuXe" opacity="1" fill-opacity="0" stroke="#000000" stroke-width="1" stroke-opacity="1"></use></g></g><g><g><use xlink:href="#i8jmfi3kQK" opacity="1" fill-opacity="0" stroke="#2861a8" stroke-width="1" stroke-opacity="1"></use></g></g><g><use xlink:href="#aYnMcm6bH" opacity="1" fill="#2861a8" fill-opacity="1"></use></g><g><use xlink:href="#b2f8Ijtvzf" opacity="1" fill="#ffffff" fill-opacity="1"></use></g><g><use xlink:href="#bfg5nLopN" opacity="1" fill="#ffffff" fill-opacity="1"></use></g><g><use xlink:href="#caOAB0pbq" opacity="1" fill="#ffffff" fill-opacity="1"></use></g><g><use xlink:href="#b19CcSbASG" opacity="1" fill="#ffffff" fill-opacity="1"></use></g><g><use xlink:href="#e1khItSOG" opacity="1" fill="#ffffff" fill-opacity="1"></use></g><g><use xlink:href="#hyJNxBGhA" opacity="1" fill="#ffffff" fill-opacity="1"></use></g><g><use xlink:href="#a5503i2IdI" opacity="1" fill="#ffffff" fill-opacity="1"></use></g><g><use xlink:href="#c74G5ZTDc" opacity="1" fill="#ffffff" fill-opacity="1"></use></g><g><use xlink:href="#beRjRgDgv" opacity="1" fill="#ffffff" fill-opacity="1"></use></g><g><use xlink:href="#b7lnFycyjo" opacity="1" fill="#ffffff" fill-opacity="1"></use></g><g><use xlink:href="#a5sECkNHYe" opacity="1" fill="#ffffff" fill-opacity="1"></use></g><g><use xlink:href="#e5lAY9WVun" opacity="1" fill="#ffffff" fill-opacity="1"></use></g><g><use xlink:href="#bdbJqctUS" opacity="1" fill="#ffffff" fill-opacity="1"></use></g><g><use xlink:href="#bCvI7JZ6M" opacity="1" fill="#ffffff" fill-opacity="1"></use></g><g><use xlink:href="#b85G6eAqx4" opacity="1" fill="#ffffff" fill-opacity="1"></use></g><g><use xlink:href="#aiaH0pEd3" opacity="1" fill="#ffffff" fill-opacity="1"></use></g><g><use xlink:href="#ahaygsrkj" opacity="1" fill="#e7eef6" fill-opacity="1"></use></g><g><use xlink:href="#cfLJRqWDI" opacity="1" fill="#e7eef6" fill-opacity="1"></use></g><g><use xlink:href="#e26NP5jqrg" opacity="1" fill="#e7eef6" fill-opacity="1"></use></g></g></g></svg>