<?xml version="1.0" encoding="UTF-8" standalone="no"?>
<!DOCTYPE svg PUBLIC "-//W3C//DTD SVG 1.1//EN" "http://www.w3.org/Graphics/SVG/1.1/DTD/svg11.dtd">
<svg version="1.1" xmlns="http://www.w3.org/2000/svg" xmlns:xlink="http://www.w3.org/1999/xlink" preserveAspectRatio="xMidYMid meet" viewBox="0 0 300 300" width="300" height="300"><defs><path d="M160.44 5L177.73 5L177.73 33.67L160.44 33.67L160.44 5Z" id="b1RAADRtAj"></path><path d="M72.56 31.86L191.42 31.86L191.42 85.17L72.56 85.17L72.56 31.86Z" id="a4xUNLbCXQ"></path><path d="M223.35 79.05L250 79.05L250 105.7L223.35 105.7L223.35 79.05Z" id="aZE5e4QJ0"></path><path d="M72.2 79.05L227.8 79.05L227.8 269.22L72.2 269.22L72.2 79.05Z" id="b3wZJZAZvK"></path><path d="M161.54 32.19L73.08 32.19L73.08 267.81L226.92 267.81L226.92 95.62L250 95.62L250 295L50 295L50 5L161.54 5L161.54 32.19ZM176.92 79.86L176.92 5L250 79.86L176.92 79.86Z" id="iij2B5UGR"></path><path d="" id="b1ifOAggQm"></path><path d="" id="a28W04kvIU"></path><path d="" id="j1hrkokLNr"></path><path d="M126.18 182.11L142.11 124L157.72 124L173.82 182.11L186.8 124L207.5 124L184.83 214L164.79 214L150 161.76L135.21 214L115.17 214L92.5 124L113.2 124L126.18 182.11Z" fill="#2372ba" id="aEJWUaG2L"></path></defs><g><g><g><g><use xlink:href="#b1RAADRtAj" opacity="1" fill="#ffffff" fill-opacity="1"></use></g><g><use xlink:href="#a4xUNLbCXQ" opacity="1" fill="#ffffff" fill-opacity="1"></use></g><g><use xlink:href="#aZE5e4QJ0" opacity="1" fill="#ffffff" fill-opacity="1"></use></g><g><use xlink:href="#b3wZJZAZvK" opacity="1" fill="#ffffff" fill-opacity="1"></use></g></g><g><use xlink:href="#iij2B5UGR" opacity="1" fill="#2372ba" fill-opacity="1"></use></g><g><g><use xlink:href="#b1ifOAggQm" opacity="1" fill-opacity="0" stroke="#000000" stroke-width="1" stroke-opacity="1"></use></g></g><g><g><use xlink:href="#a28W04kvIU" opacity="1" fill-opacity="0" stroke="#000000" stroke-width="1" stroke-opacity="1"></use></g></g><g><g><use xlink:href="#j1hrkokLNr" opacity="1" fill-opacity="0" stroke="#2861a8" stroke-width="1" stroke-opacity="1"></use></g></g><g><use xlink:href="#aEJWUaG2L" opacity="1" fill="#2372ba" fill-opacity="1"></use><g><use xlink:href="#aEJWUaG2L" opacity="1" fill-opacity="0" stroke="#000000" stroke-width="1" stroke-opacity="0"></use></g></g></g></g></svg>