<?xml version="1.0" encoding="UTF-8" standalone="no"?>
<!DOCTYPE svg PUBLIC "-//W3C//DTD SVG 1.1//EN" "http://www.w3.org/Graphics/SVG/1.1/DTD/svg11.dtd">
<svg version="1.1" xmlns="http://www.w3.org/2000/svg" xmlns:xlink="http://www.w3.org/1999/xlink" preserveAspectRatio="xMidYMid meet" viewBox="0 0 300 300" width="300" height="300"><defs><path d="M160.44 5L177.73 5L177.73 33.67L160.44 33.67L160.44 5Z" id="d2AyiAoRab"></path><path d="M72.2 31.86L191.06 31.86L191.06 85.17L72.2 85.17L72.2 31.86Z" id="e1EEoE5fU"></path><path d="M223.35 79.05L250 79.05L250 105.7L223.35 105.7L223.35 79.05Z" id="bWHJUAA47"></path><path d="M72.2 79.05L227.8 79.05L227.8 269.22L72.2 269.22L72.2 79.05Z" id="c10WG0oFYb"></path><path d="M161.54 32.19L73.08 32.19L73.08 267.81L226.92 267.81L226.92 95.62L250 95.62L250 295L50 295L50 5L161.54 5L161.54 32.19ZM176.92 79.86L176.92 5L250 79.86L176.92 79.86Z" id="cGRkiF0Fc"></path><path d="" id="a3fZNQ5c2K"></path><path d="" id="akMeDWeqg"></path><path d="" id="a9PJoLm1R"></path><path d="M88.42 103.97L165.06 103.97L165.06 179.25L88.42 179.25L88.42 103.97Z" fill="#2861a8" id="d3rFKsgNcO"></path><path d="M92.66 107.76L161.09 107.76L161.09 176.19L92.66 176.19L92.66 107.76Z" id="eqcOqPE8g"></path><path d="M106.25 120.14L114 153.14L121.5 120.14L132.5 120.14L141.75 153.14L149 119.14L159.25 119.14L149.75 165.14L136.25 165.14L127 130.89L119.75 165.89L106.25 165.89L95.25 120.14L106.25 120.14Z" fill="#2861a8" id="b24OkxVE"></path><path d="M174.15 125L211.4 125L211.4 136.75L174.15 136.75L174.15 125Z" fill="#2861a8" id="a4j8RNs4Bh"></path><path d="M175.4 146.75L211.4 146.75L211.4 157.75L175.4 157.75L175.4 146.75Z" fill="#2861a8" id="b2Jz7nd7y"></path><path d="M175.4 167.75L211.4 167.75L211.4 179.25L175.4 179.25L175.4 167.75Z" fill="#2861a8" id="b1EllKdluQ"></path><path d="M111.4 189.5L211.4 189.5L211.4 201.25L111.4 201.25L111.4 189.5Z" fill="#2861a8" id="ghilf2Duu"></path><path d="M112.4 211.75L211.4 211.75L211.4 223.5L112.4 223.5L112.4 211.75Z" fill="#2861a8" id="g297w5n9Qu"></path></defs><g><g><g><use xlink:href="#d2AyiAoRab" opacity="1" fill="#ffffff" fill-opacity="1"></use></g><g><use xlink:href="#e1EEoE5fU" opacity="1" fill="#ffffff" fill-opacity="1"></use></g><g><use xlink:href="#bWHJUAA47" opacity="1" fill="#ffffff" fill-opacity="1"></use></g><g><use xlink:href="#c10WG0oFYb" opacity="1" fill="#ffffff" fill-opacity="1"></use></g><g><use xlink:href="#cGRkiF0Fc" opacity="1" fill="#2861a8" fill-opacity="1"></use></g><g><g><use xlink:href="#a3fZNQ5c2K" opacity="1" fill-opacity="0" stroke="#000000" stroke-width="1" stroke-opacity="1"></use></g></g><g><g><use xlink:href="#akMeDWeqg" opacity="1" fill-opacity="0" stroke="#000000" stroke-width="1" stroke-opacity="1"></use></g></g><g><g><use xlink:href="#a9PJoLm1R" opacity="1" fill-opacity="0" stroke="#2861a8" stroke-width="1" stroke-opacity="1"></use></g></g><g><g><g><use xlink:href="#d3rFKsgNcO" opacity="1" fill="#2861a8" fill-opacity="1"></use></g><g><use xlink:href="#eqcOqPE8g" opacity="1" fill="#ffffff" fill-opacity="1"></use></g></g><g><use xlink:href="#b24OkxVE" opacity="1" fill="#2861a8" fill-opacity="1"></use><g><use xlink:href="#b24OkxVE" opacity="1" fill-opacity="0" stroke="#2861a8" stroke-width="1" stroke-opacity="1"></use></g></g></g><g><use xlink:href="#a4j8RNs4Bh" opacity="1" fill="#2861a8" fill-opacity="1"></use></g><g><use xlink:href="#b2Jz7nd7y" opacity="1" fill="#2861a8" fill-opacity="1"></use></g><g><use xlink:href="#b1EllKdluQ" opacity="1" fill="#2861a8" fill-opacity="1"></use></g><g><use xlink:href="#ghilf2Duu" opacity="1" fill="#2861a8" fill-opacity="1"></use></g><g><use xlink:href="#g297w5n9Qu" opacity="1" fill="#2861a8" fill-opacity="1"></use></g></g></g></svg>